<svg xmlns="http://www.w3.org/2000/svg" xmlns:xlink="http://www.w3.org/1999/xlink" viewBox="0 0 335.67 346.17"><defs><filter id="luminosity-noclip" x="193.26" y="-8392" width="63.11" height="32766" filterUnits="userSpaceOnUse" color-interpolation-filters="sRGB"><feFlood flood-color="#fff" result="bg"/><feBlend in="SourceGraphic" in2="bg"/></filter><mask id="mask" x="193.26" y="-8392" width="63.11" height="32766" maskUnits="userSpaceOnUse"><g filter="url(#luminosity-noclip)"/></mask><linearGradient id="linear-gradient" x1="252.54" y1="111.22" x2="237.51" y2="142.8" gradientUnits="userSpaceOnUse"><stop offset="0" stop-color="#fff"/><stop offset="1"/></linearGradient><filter id="luminosity-noclip-2" x="302.18" y="-8392" width="63.11" height="32766" filterUnits="userSpaceOnUse" color-interpolation-filters="sRGB"><feFlood flood-color="#fff" result="bg"/><feBlend in="SourceGraphic" in2="bg"/></filter><mask id="mask-2" x="302.18" y="-8392" width="63.11" height="32766" maskUnits="userSpaceOnUse"><g filter="url(#luminosity-noclip-2)"/></mask><linearGradient id="linear-gradient-2" x1="361.46" y1="174.75" x2="346.42" y2="206.32" xlink:href="#linear-gradient"/><linearGradient id="linear-gradient-3" x1="75.18" y1="362.33" x2="180.16" y2="321.92" gradientUnits="userSpaceOnUse"><stop offset="0" stop-color="#722f37"/><stop offset="0.99" stop-color="#f2798d"/></linearGradient><linearGradient id="linear-gradient-4" x1="135.47" y1="206.74" x2="100.68" y2="141" gradientUnits="userSpaceOnUse"><stop offset="0" stop-color="#fff5ee"/><stop offset="1" stop-color="#b28a7f"/></linearGradient><linearGradient id="linear-gradient-5" x1="115.81" y1="241.78" x2="107.01" y2="183.13" gradientUnits="userSpaceOnUse"><stop offset="0" stop-color="#efe1da"/><stop offset="1" stop-color="#b28a7f"/></linearGradient><linearGradient id="linear-gradient-6" x1="94.48" y1="59.65" x2="130.48" y2="170.15" xlink:href="#linear-gradient-3"/><linearGradient id="linear-gradient-7" x1="111.56" y1="145.64" x2="130.67" y2="179.52" gradientUnits="userSpaceOnUse"><stop offset="0" stop-color="#efe1da"/><stop offset="1" stop-color="#876a60"/></linearGradient><linearGradient id="linear-gradient-8" x1="101.56" y1="174.14" x2="111.63" y2="174.14" gradientUnits="userSpaceOnUse"><stop offset="0" stop-color="#c45422"/><stop offset="1" stop-color="#7f2e0a"/></linearGradient><linearGradient id="linear-gradient-9" x1="104.16" y1="169.01" x2="115.59" y2="169.01" xlink:href="#linear-gradient-8"/><linearGradient id="linear-gradient-10" x1="100.88" y1="165.56" x2="112.31" y2="165.56" gradientUnits="userSpaceOnUse"><stop offset="0" stop-color="#ad4618"/><stop offset="1" stop-color="#662109"/></linearGradient><linearGradient id="linear-gradient-11" x1="106.19" y1="155.98" x2="107.2" y2="155.98" gradientUnits="userSpaceOnUse"><stop offset="0" stop-color="#9ed353"/><stop offset="0.98" stop-color="#345b0e"/></linearGradient><linearGradient id="linear-gradient-12" x1="154.31" y1="154.76" x2="161.33" y2="154.76" gradientTransform="matrix(-0.9, 0, 0, 1, 243.35, 0)" xlink:href="#linear-gradient-11"/><linearGradient id="linear-gradient-13" x1="102.72" y1="144.24" x2="106.41" y2="144.24" xlink:href="#linear-gradient-11"/><linearGradient id="linear-gradient-14" x1="101.64" y1="149.41" x2="104.7" y2="149.41" xlink:href="#linear-gradient-11"/><linearGradient id="linear-gradient-15" x1="98.64" y1="158.49" x2="101.79" y2="158.49" gradientTransform="matrix(0.94, 0.34, -0.34, 0.94, 65.31, -22.56)" xlink:href="#linear-gradient-11"/><linearGradient id="linear-gradient-16" x1="101.98" y1="152.78" x2="109.01" y2="152.78" xlink:href="#linear-gradient-11"/><linearGradient id="linear-gradient-17" x1="106.25" y1="156.42" x2="114.31" y2="156.42" gradientTransform="translate(-7.93) scale(1.08 1)" xlink:href="#linear-gradient-11"/><linearGradient id="linear-gradient-18" x1="106.41" y1="146.43" x2="111.99" y2="146.43" xlink:href="#linear-gradient-11"/><linearGradient id="linear-gradient-19" x1="158.62" y1="126.82" x2="184.87" y2="126.82" gradientUnits="userSpaceOnUse"><stop offset="0" stop-color="#b0e2f7"/><stop offset="1" stop-color="#5ba1c4"/></linearGradient><linearGradient id="linear-gradient-20" x1="90.45" y1="173.4" x2="71.98" y2="173.4" gradientUnits="userSpaceOnUse"><stop offset="0" stop-color="#b0e2f7"/><stop offset="0.64" stop-color="#7bb9d7"/><stop offset="1" stop-color="#5ba1c4"/></linearGradient><linearGradient id="linear-gradient-21" x1="121.78" y1="146.05" x2="132.15" y2="165.97" xlink:href="#linear-gradient-5"/><filter id="luminosity-noclip-3" x="193.26" y="97.99" width="63.11" height="90.2" filterUnits="userSpaceOnUse" color-interpolation-filters="sRGB"><feFlood flood-color="#fff" result="bg"/><feBlend in="SourceGraphic" in2="bg"/></filter><mask id="mask-3" x="149.52" y="84.54" width="63.11" height="90.2" maskUnits="userSpaceOnUse"><g filter="url(#luminosity-noclip-3)"><g transform="translate(-43.74 -13.44)"><g id="_Group_3" data-name="&lt;Group&gt;"><g mask="url(#mask)"><polygon id="_Path_" data-name="&lt;Path&gt;" points="239.94 101.38 256.37 188.18 193.26 150.73 224.7 97.99 239.94 101.38" fill="url(#linear-gradient)" style="mix-blend-mode:multiply"/></g></g></g></g></mask><linearGradient id="linear-gradient-22" x1="208.8" y1="97.78" x2="193.77" y2="129.36" gradientUnits="userSpaceOnUse"><stop offset="0" stop-color="#d5f7f4"/><stop offset="1" stop-color="#6dbed1"/></linearGradient><linearGradient id="linear-gradient-23" x1="232.35" y1="91.74" x2="226.62" y2="109.2" xlink:href="#linear-gradient-22"/><filter id="luminosity-noclip-4" x="302.18" y="161.51" width="63.11" height="90.2" filterUnits="userSpaceOnUse" color-interpolation-filters="sRGB"><feFlood flood-color="#fff" result="bg"/><feBlend in="SourceGraphic" in2="bg"/></filter><mask id="mask-4" x="258.44" y="148.06" width="63.11" height="90.2" maskUnits="userSpaceOnUse"><g filter="url(#luminosity-noclip-4)"><g transform="translate(-43.74 -13.44)"><g id="_Group_4" data-name="&lt;Group&gt;"><g mask="url(#mask-2)"><polygon id="_Path_2" data-name="&lt;Path&gt;" points="348.86 164.91 365.29 251.71 302.18 214.25 333.62 161.51 348.86 164.91" fill="url(#linear-gradient-2)" style="mix-blend-mode:multiply"/></g></g></g></g></mask><linearGradient id="linear-gradient-24" x1="317.72" y1="161.3" x2="302.69" y2="192.88" xlink:href="#linear-gradient-22"/><linearGradient id="linear-gradient-25" x1="341.24" y1="155.25" x2="334.95" y2="172.52" xlink:href="#linear-gradient-22"/><linearGradient id="linear-gradient-26" x1="66.77" y1="211.76" x2="72.45" y2="195.52" xlink:href="#linear-gradient-4"/><linearGradient id="linear-gradient-27" x1="95.78" y1="210.51" x2="95.84" y2="210.62" gradientTransform="matrix(-1.05, 0, 0, 1, 167.23, 0)" xlink:href="#linear-gradient-5"/><linearGradient id="linear-gradient-28" x1="94.1" y1="211.29" x2="96.05" y2="215.04" gradientTransform="matrix(-1.05, 0, 0, 1, 167.23, 0)" xlink:href="#linear-gradient-5"/><linearGradient id="linear-gradient-29" x1="223.7" y1="169.76" x2="245.44" y2="169.76" xlink:href="#linear-gradient-19"/><linearGradient id="linear-gradient-30" x1="244.7" y1="159.73" x2="260.38" y2="159.73" xlink:href="#linear-gradient-19"/><linearGradient id="linear-gradient-31" x1="259.08" y1="153.49" x2="268.37" y2="153.49" xlink:href="#linear-gradient-19"/><linearGradient id="linear-gradient-32" x1="267.55" y1="146.41" x2="283.05" y2="146.41" xlink:href="#linear-gradient-19"/><linearGradient id="linear-gradient-33" x1="288.53" y1="188.18" x2="275.63" y2="188.18" xlink:href="#linear-gradient-3"/><linearGradient id="linear-gradient-34" x1="298.46" y1="190.8" x2="280.66" y2="178.35" gradientTransform="matrix(0.99, 0.12, -0.12, 0.99, 21.03, -35.98)" xlink:href="#linear-gradient-11"/><linearGradient id="linear-gradient-35" x1="266.02" y1="178.43" x2="292.5" y2="178.43" xlink:href="#linear-gradient-11"/><linearGradient id="linear-gradient-36" x1="297.51" y1="180.96" x2="278.77" y2="167.86" xlink:href="#linear-gradient-11"/><linearGradient id="linear-gradient-37" x1="252.09" y1="169.72" x2="266.21" y2="169.72" gradientTransform="translate(75.75 -66.27) rotate(17.14)" xlink:href="#linear-gradient-11"/><linearGradient id="linear-gradient-38" x1="265.56" y1="156.77" x2="276.26" y2="156.77" gradientTransform="matrix(-0.5, 0.87, 0.91, 0.52, 277, -149.22)" xlink:href="#linear-gradient-11"/><linearGradient id="linear-gradient-39" x1="284.47" y1="179.19" x2="293.61" y2="165.88" gradientTransform="matrix(0.36, -0.89, 1.09, 0.44, -8.55, 352.25)" xlink:href="#linear-gradient-11"/><linearGradient id="linear-gradient-40" x1="273.51" y1="175.07" x2="287.74" y2="154.35" xlink:href="#linear-gradient-11"/><linearGradient id="linear-gradient-41" x1="245.67" y1="186.77" x2="266.62" y2="186.77" gradientTransform="translate(411.56 -120.08) rotate(79.34)" xlink:href="#linear-gradient-11"/><linearGradient id="linear-gradient-42" x1="261.9" y1="154.88" x2="276.05" y2="154.88" gradientTransform="matrix(-0.5, 0.87, 0.91, 0.52, 277, -149.22)" xlink:href="#linear-gradient-11"/><linearGradient id="linear-gradient-43" x1="277.68" y1="202.37" x2="296.38" y2="202.37" gradientUnits="userSpaceOnUse"><stop offset="0" stop-color="#efe1da"/><stop offset="1" stop-color="#725c57"/></linearGradient></defs><title>159 [Converted]</title><g style="isolation:isolate"><g id="content"><g id="_19" data-name="19"><polygon id="_Path_3" data-name="&lt;Path&gt;" points="144.06 9.17 328 115.17 328 257.17 144.06 151.83 144.06 9.17" fill="#6ec9e5"/><polygon id="_Path_4" data-name="&lt;Path&gt;" points="189.67 336.83 328 257.17 144.06 151.83 7 231.83 189.67 336.83" fill="#efdada"/><g id="_Group_5" data-name="&lt;Group&gt;"><g id="_Group_6" data-name="&lt;Group&gt;"><polygon id="_Path_5" data-name="&lt;Path&gt;" points="144.06 9.17 144.06 151.84 7 231.84 7 87.84 144.06 9.17" fill="#4297bc"/></g></g><polygon id="_Path_6" data-name="&lt;Path&gt;" points="189.67 336.83 189.67 346.17 335.67 262.17 335.67 110.83 328 115.17 328 257.17 189.67 336.83" fill="#1d517f"/><polygon id="_Path_7" data-name="&lt;Path&gt;" points="7 231.83 7 87.83 0 83.67 0 237.25 189.67 346.17 189.67 336.83 7 231.83" fill="#2a6893"/><polygon id="_Path_8" data-name="&lt;Path&gt;" points="0 83.67 144.06 0 335.67 110.83 328 115.17 144.06 9.17 7 87.83 0 83.67" fill="#a2e9f4"/></g><polygon id="_Path_9" data-name="&lt;Path&gt;" points="178.97 330.69 316.79 250.74 328 257.17 189.67 336.83 178.97 330.69" fill="url(#linear-gradient-3)"/><g id="_15" data-name="15"><g id="_Group_7" data-name="&lt;Group&gt;"><g id="_15-2" data-name="15"><path id="_Path_10" data-name="&lt;Path&gt;" d="M138.62,162.2l-3.4-2a2.21,2.21,0,0,0-2.6,0l-27.8,15.89,8.48,41.21,27.4-15.68c.91-.35,1.51-1.43,1.51-3.05l0-29.44C142.24,166.46,140.62,163.36,138.62,162.2Z" transform="translate(-43.74 -13.44)" fill="url(#linear-gradient-4)"/><path id="_Path_11" data-name="&lt;Path&gt;" d="M110.72,217.24l-3.4-2c-2-1.16-3.62-4.26-3.61-6.93l0-29.44c0-2.67,1.62-3.9,3.62-2.74l3.4,2c2,1.15,3.63,4.26,3.62,6.93l0,29.44C114.35,217.18,112.73,218.4,110.72,217.24Z" transform="translate(-43.74 -13.44)" fill="url(#linear-gradient-5)"/></g><g id="_13" data-name="13"><polygon id="_Path_12" data-name="&lt;Path&gt;" points="48.96 105.93 48.96 169.88 104.22 138.63 104.22 73.84 48.96 105.93" fill="#f3fcff"/><polygon id="_Path_13" data-name="&lt;Path&gt;" points="100.08 76.24 100.08 132.46 104.22 135.01 104.22 73.84 100.08 76.24" fill="#9fc8dd"/><path id="_Compound_Path_" data-name="&lt;Compound Path&gt;" d="M92.7,119.38v56.21l51.12-29.69V89.69Zm3.3,2.27,21.27-12.36v47.62L96,169.27Zm44.56,21.72-19.68,11.44V107.19l19.68-11.44Z" transform="translate(-43.74 -13.44)" fill="url(#linear-gradient-6)"/><g id="_Group_8" data-name="&lt;Group&gt;"><path id="_Compound_Path_2" data-name="&lt;Compound Path&gt;" d="M150.69,141a1.63,1.63,0,0,1-1.62-1.62V86.44a1.62,1.62,0,0,1,3.23,0v52.9A1.62,1.62,0,0,1,150.69,141Zm.65-54.52a.65.65,0,1,0-1.3,0v52.9a.65.65,0,1,0,1.3,0Z" transform="translate(-43.74 -13.44)" fill="#444b66"/></g><g id="_Group_9" data-name="&lt;Group&gt;"><g id="_Group_10" data-name="&lt;Group&gt;"><path id="_Path_14" data-name="&lt;Path&gt;" d="M91.1,119.89h0a1.41,1.41,0,0,1,.5-1.94l56-33.14a1.43,1.43,0,0,1,1.95.5h0a1.42,1.42,0,0,1-.5,1.94L93,120.4A1.42,1.42,0,0,1,91.1,119.89Z" transform="translate(-43.74 -13.44)" fill="#444b66"/></g><g id="_Group_11" data-name="&lt;Group&gt;"><path id="_Path_15" data-name="&lt;Path&gt;" d="M91.1,124.53h0a1.41,1.41,0,0,1,.5-1.94l56-33.15a1.43,1.43,0,0,1,1.95.51h0a1.43,1.43,0,0,1-.5,1.94L93,125A1.42,1.42,0,0,1,91.1,124.53Z" transform="translate(-43.74 -13.44)" fill="#444b66"/></g><g id="_Group_12" data-name="&lt;Group&gt;"><path id="_Path_16" data-name="&lt;Path&gt;" d="M91.1,129.16h0a1.41,1.41,0,0,1,.5-1.94l56-33.14a1.42,1.42,0,0,1,1.95.5h0a1.43,1.43,0,0,1-.5,1.94L93,129.66A1.41,1.41,0,0,1,91.1,129.16Z" transform="translate(-43.74 -13.44)" fill="#444b66"/></g><g id="_Group_13" data-name="&lt;Group&gt;"><path id="_Path_17" data-name="&lt;Path&gt;" d="M91.1,134.17h0a1.42,1.42,0,0,1,.5-1.95l56-33.14a1.44,1.44,0,0,1,1.95.5h0a1.44,1.44,0,0,1-.5,2L93,134.67A1.42,1.42,0,0,1,91.1,134.17Z" transform="translate(-43.74 -13.44)" fill="#444b66"/></g><g id="_Group_14" data-name="&lt;Group&gt;"><path id="_Path_18" data-name="&lt;Path&gt;" d="M91.1,138.8h0a1.41,1.41,0,0,1,.5-1.94l56-33.14a1.42,1.42,0,0,1,1.95.5h0a1.43,1.43,0,0,1-.5,1.94L93,139.3A1.41,1.41,0,0,1,91.1,138.8Z" transform="translate(-43.74 -13.44)" fill="#444b66"/></g><g id="_Group_15" data-name="&lt;Group&gt;"><path id="_Path_19" data-name="&lt;Path&gt;" d="M91.1,143.43h0a1.41,1.41,0,0,1,.5-1.94l56-33.14a1.43,1.43,0,0,1,1.95.5h0a1.42,1.42,0,0,1-.5,1.94L93,143.94A1.42,1.42,0,0,1,91.1,143.43Z" transform="translate(-43.74 -13.44)" fill="#444b66"/></g><rect id="_Rectangle_" data-name="&lt;Rectangle&gt;" x="104.9" y="68.95" width="4.11" height="8.29" rx="1.76" ry="1.76" fill="#444b66"/></g><path id="_Path_20" data-name="&lt;Path&gt;" d="M157.28,158.73v-3.16H154l-.08,0L148,152.07l-45.88,25.8-9.38,1.82v3.64l.46.09,7.23,4.3a7.58,7.58,0,0,0,6.82.38l48.88-27.5a2.06,2.06,0,0,0,1.17-1.56h0Z" transform="translate(-43.74 -13.44)" fill="url(#linear-gradient-7)"/><path id="_Path_21" data-name="&lt;Path&gt;" d="M156.09,157.14l-48.88,27.5a7.58,7.58,0,0,1-6.82-.38l-7.69-4.57v-4.1l51.12-29.69,11.83,7.29C157.65,154.38,157.85,156.15,156.09,157.14Z" transform="translate(-43.74 -13.44)" fill="#eae1b9"/></g><g id="_12" data-name="12"><g id="_Group_16" data-name="&lt;Group&gt;"><path id="_Path_22" data-name="&lt;Path&gt;" d="M101.56,170.51l1,5c0,1.24,1.81,2.24,4,2.24s4-1,4-2.24l1-5Z" transform="translate(-43.74 -13.44)" fill="url(#linear-gradient-8)"/><path id="_Path_23" data-name="&lt;Path&gt;" d="M112.29,166.28l-2.63.06a9.59,9.59,0,0,0-6.5.14l-2.28.05V169c0,1.75,2.56,3.17,5.72,3.17s5.71-1.42,5.71-3.17Z" transform="translate(-43.74 -13.44)" fill="url(#linear-gradient-9)"/><path id="_Path_24" data-name="&lt;Path&gt;" d="M112.31,166.53c0,1.75-2.56,3.17-5.71,3.17s-5.72-1.42-5.72-3.17,2.56-3.17,5.72-3.17S112.31,164.78,112.31,166.53Z" transform="translate(-43.74 -13.44)" fill="#768730"/><path id="_Path_25" data-name="&lt;Path&gt;" d="M106.6,165.84c2.36,0,4.39.79,5.26,1.93a2,2,0,0,0,.45-1.24c0-1.75-2.56-3.17-5.71-3.17s-5.72,1.42-5.72,3.17a2,2,0,0,0,.46,1.24C102.21,166.63,104.23,165.84,106.6,165.84Z" transform="translate(-43.74 -13.44)" fill="url(#linear-gradient-10)"/><path id="_Compound_Path_3" data-name="&lt;Compound Path&gt;" d="M106.6,163.36c-3.16,0-5.72,1.42-5.72,3.17s2.56,3.17,5.72,3.17,5.71-1.42,5.71-3.17S109.75,163.36,106.6,163.36Zm0,5.65c-2.47,0-4.47-1.11-4.47-2.48s2-2.48,4.47-2.48,4.47,1.11,4.47,2.48S109.07,169,106.6,169Z" transform="translate(-43.74 -13.44)" fill="#c97363"/></g><g id="_Group_17" data-name="&lt;Group&gt;"><g id="_Group_18" data-name="&lt;Group&gt;"><path id="_Path_26" data-name="&lt;Path&gt;" d="M106.81,167.83h0c-.22,0-.49-.36-.49-.75l-.13-22c0-.39,0-.93.22-.93h0c.22,0,.22.48.22.87l.57,22C107.2,167.36,107,167.83,106.81,167.83Z" transform="translate(-43.74 -13.44)" fill="url(#linear-gradient-11)"/><path id="_Path_27" data-name="&lt;Path&gt;" d="M97.81,152s3.14-.88,4.27,1,2.07,3.36,2.07,3.36-3,2.14-4.34,1S97.81,152,97.81,152Z" transform="translate(-43.74 -13.44)" fill="url(#linear-gradient-12)"/><path id="_Path_28" data-name="&lt;Path&gt;" d="M106.41,144.71s-.35-2.2-2-1.53-1.71,1.53-1.71,1.53a5.38,5.38,0,0,0,2.18.71A2.43,2.43,0,0,0,106.41,144.71Z" transform="translate(-43.74 -13.44)" fill="url(#linear-gradient-13)"/><path id="_Path_29" data-name="&lt;Path&gt;" d="M104,151.66a2.16,2.16,0,0,1-2.09-1.26,5.19,5.19,0,0,1,0-3.24s2.08.17,2.63,1.24S104,151.66,104,151.66Z" transform="translate(-43.74 -13.44)" fill="url(#linear-gradient-14)"/><path id="_Path_30" data-name="&lt;Path&gt;" d="M106.63,160.17a1.81,1.81,0,0,0-1.87-1.15c-1.3.23-2.13,2.94-2.13,2.94s1.54.81,2.37.2A7.78,7.78,0,0,0,106.63,160.17Z" transform="translate(-43.74 -13.44)" fill="url(#linear-gradient-15)"/><path id="_Path_31" data-name="&lt;Path&gt;" d="M106.43,158.36l-3.51-3.05s-2.78-2.21,1.23-4.52c3-1.74,4.07-1.69,4.49-3.34.49-1.88.35,7,.35,7Z" transform="translate(-43.74 -13.44)" fill="url(#linear-gradient-16)"/><path id="_Path_32" data-name="&lt;Path&gt;" d="M115,153s-4.14-.7-6.19,1.2a8,8,0,0,0-2.48,4.43s3.79,2.27,5.77.82S115,153,115,153Z" transform="translate(-43.74 -13.44)" fill="url(#linear-gradient-17)"/></g><path id="_Path_33" data-name="&lt;Path&gt;" d="M112,144.29s-2.71-.68-3.69.77-1.89,2.62-1.89,2.62a3.54,3.54,0,0,0,3.85.74C111.62,147.79,112,144.29,112,144.29Z" transform="translate(-43.74 -13.44)" fill="url(#linear-gradient-18)"/></g></g><path id="_Path_34" data-name="&lt;Path&gt;" d="M178.28,61.49V174.05s1.61,8.73-4.18,10.9c-4.52,1.69-4.51,0-4.51,0s1.85,4.72-4.5,6.59c-8.21,2.42-11.54-3.06-11.54-3.06V76.25Z" transform="translate(-43.74 -13.44)" fill="url(#linear-gradient-19)"/><g id="_Group_19" data-name="&lt;Group&gt;"><path id="_Path_35" data-name="&lt;Path&gt;" d="M71.83,123.36h0a1.42,1.42,0,0,1,.5-2L179,57.72a1.43,1.43,0,0,1,1.95.51h0a1.43,1.43,0,0,1-.5,1.94L73.77,123.86A1.41,1.41,0,0,1,71.83,123.36Z" transform="translate(-43.74 -13.44)" fill="#e1eef4"/></g><path id="_Path_36" data-name="&lt;Path&gt;" d="M100.38,108l-.2,112.73s1.61,8.73-4.18,10.9c-4.52,1.7-4.51,0-4.51,0s1.85,4.73-4.5,6.6c-8.21,2.41-11.54-3.06-11.54-3.06V122.86Z" transform="translate(-43.74 -13.44)" fill="url(#linear-gradient-20)"/></g><g id="_4" data-name="4"><path id="_Path_37" data-name="&lt;Path&gt;" d="M139,159.45l-9.75,5.64a5.55,5.55,0,0,1-5-.2l-5.79-3.35c-1.47-.84-1.63-2.13-.36-2.86l9.75-5.64a5.52,5.52,0,0,1,5,.21l5.8,3.34C140.1,157.44,140.26,158.72,139,159.45Z" transform="translate(-43.74 -13.44)" fill="url(#linear-gradient-21)"/><path id="_Path_38" data-name="&lt;Path&gt;" d="M139,156.7l-9.75,5.64a5.55,5.55,0,0,1-5-.2l-5.79-3.35c-1.47-.84-1.63-2.13-.36-2.86l9.75-5.64a5.52,5.52,0,0,1,5,.21l5.8,3.34C140.1,154.69,140.26,156,139,156.7Z" transform="translate(-43.74 -13.44)" fill="#f9eeed"/></g></g><g id="_9" data-name="9"><path id="_Compound_Path_4" data-name="&lt;Compound Path&gt;" d="M150.69,143.17a2.52,2.52,0,1,1,2.51-2.52A2.52,2.52,0,0,1,150.69,143.17Zm0-4a1.52,1.52,0,1,0,1.51,1.51A1.52,1.52,0,0,0,150.69,139.14Z" transform="translate(-43.74 -13.44)" fill="#fff"/></g><g mask="url(#mask-3)"><polygon id="_Path_39" data-name="&lt;Path&gt;" points="196.21 87.94 212.63 174.74 149.53 137.29 180.96 84.54 196.21 87.94" fill="url(#linear-gradient-22)"/></g><path id="_Path_40" data-name="&lt;Path&gt;" d="M229.44,85.77l-1.53.88a7.58,7.58,0,0,0-3.2,6.08V98l10.52,6.11L240,91.88Z" transform="translate(-43.74 -13.44)" fill="url(#linear-gradient-23)"/><path id="_Path_41" data-name="&lt;Path&gt;" d="M239.94,101.38l-4.72,2.72V98.84a7.64,7.64,0,0,1,3.2-6.08l1.53-.88Z" transform="translate(-43.74 -13.44)" fill="#b5ebf4"/><path id="_Path_42" data-name="&lt;Path&gt;" d="M224.7,98v.74a1.57,1.57,0,0,0,.79,1.36l9.73,5.58V104.1Z" transform="translate(-43.74 -13.44)" fill="#fff"/><path id="_Path_43" data-name="&lt;Path&gt;" d="M239.94,101.38v.73a1.7,1.7,0,0,1-.89,1.5l-3.83,2.06V104.1Z" transform="translate(-43.74 -13.44)" fill="#f0fdff"/><g mask="url(#mask-4)"><polygon id="_Path_44" data-name="&lt;Path&gt;" points="305.12 151.46 321.55 238.26 258.44 200.81 289.88 148.06 305.12 151.46" fill="url(#linear-gradient-24)"/></g><path id="_Path_45" data-name="&lt;Path&gt;" d="M338.36,149.29l-1.54.88a7.6,7.6,0,0,0-3.19,6.08v5.26l10.52,6.11,4.74-12.22Z" transform="translate(-43.74 -13.44)" fill="url(#linear-gradient-25)"/><path id="_Path_46" data-name="&lt;Path&gt;" d="M348.86,164.9l-4.72,2.72v-5.26a7.61,7.61,0,0,1,3.2-6.08l1.53-.88Z" transform="translate(-43.74 -13.44)" fill="#b5ebf4"/><path id="_Path_47" data-name="&lt;Path&gt;" d="M333.62,161.51v.74a1.57,1.57,0,0,0,.79,1.36l9.73,5.58v-1.57Z" transform="translate(-43.74 -13.44)" fill="#fff"/><path id="_Path_48" data-name="&lt;Path&gt;" d="M348.86,164.9v.73a1.68,1.68,0,0,1-.9,1.5l-3.82,2.06v-1.57Z" transform="translate(-43.74 -13.44)" fill="#f0fdff"/><g id="_5" data-name="5"><polygon id="_Path_49" data-name="&lt;Path&gt;" points="164.16 156.82 137.12 140.83 137.12 168.85 164.16 184.99 164.16 156.82" fill="#aeb7a1"/><polygon id="_Path_50" data-name="&lt;Path&gt;" points="164.16 184.99 164.16 156.82 185.39 144.37 185.39 172.82 164.16 184.99" fill="#6b878e"/><polygon id="_Path_51" data-name="&lt;Path&gt;" points="137.12 140.83 159.2 128.51 185.39 144.37 164.16 156.82 137.12 140.83" fill="#eaefe1"/><path id="_Path_52" data-name="&lt;Path&gt;" d="M203.87,178,184.1,166.23A2.75,2.75,0,0,1,183,164l.05-3.29c0-.85.53-1.23,1.16-.86L204,171.61a2.77,2.77,0,0,1,1.12,2.22l0,3.29C205,178,204.5,178.35,203.87,178Z" transform="translate(-43.74 -13.44)" fill="#f0f4e4"/><path id="_Path_53" data-name="&lt;Path&gt;" d="M194.82,170.78,191,168.45a1.15,1.15,0,0,1-.39-1.57h0a1.14,1.14,0,0,1,1.57-.38l3.83,2.33a1.16,1.16,0,0,1,.38,1.57h0A1.16,1.16,0,0,1,194.82,170.78Z" transform="translate(-43.74 -13.44)" fill="#445f63"/></g><path id="_Path_54" data-name="&lt;Path&gt;" d="M203.87,187.18,184.1,175.43a2.76,2.76,0,0,1-1.13-2.21l.05-3.29c0-.85.53-1.24,1.16-.86L204,180.81a2.77,2.77,0,0,1,1.12,2.22l0,3.29C205,187.17,204.5,187.55,203.87,187.18Z" transform="translate(-43.74 -13.44)" fill="#f0f4e4"/><path id="_Path_55" data-name="&lt;Path&gt;" d="M194.82,180,191,177.64a1.14,1.14,0,0,1-.39-1.56h0a1.14,1.14,0,0,1,1.57-.38L196,178a1.15,1.15,0,0,1,.38,1.56h0A1.14,1.14,0,0,1,194.82,180Z" transform="translate(-43.74 -13.44)" fill="#445f63"/><g id="_14" data-name="14"><g id="_Group_20" data-name="&lt;Group&gt;"><path id="_Path_56" data-name="&lt;Path&gt;" d="M65.11,216.58l2.7-1.56a2.4,2.4,0,0,0,1-1.93v-3.62c0-.74-.45-1.08-1-.76l-2.71,1.56a2.42,2.42,0,0,0-1,1.92v3.62C64.11,216.56,64.55,216.9,65.11,216.58Z" transform="translate(-43.74 -13.44)" fill="url(#linear-gradient-26)"/><g id="_Group_21" data-name="&lt;Group&gt;"><path id="_Path_57" data-name="&lt;Path&gt;" d="M66.4,210.53l-.07.06s0,0-.06,0Z" transform="translate(-43.74 -13.44)" fill="url(#linear-gradient-27)"/><path id="_Path_58" data-name="&lt;Path&gt;" d="M65.73,214.19V211.8a1.61,1.61,0,0,1,.59-1.21.41.41,0,0,1,.34,0h0l0,0,0,0,1.82,1.12-.66,4.21L66,214.77v0C65.86,214.69,65.73,214.5,65.73,214.19Z" transform="translate(-43.74 -13.44)" fill="url(#linear-gradient-28)"/></g><path id="_Path_59" data-name="&lt;Path&gt;" d="M68.29,215.86l-.13.08a1.6,1.6,0,0,0,.66-1.27v-2.39c0-.49-.3-.72-.66-.51l.13-.08a1.58,1.58,0,0,0-.67,1.27v2.4C67.63,215.85,67.92,216.07,68.29,215.86Z" transform="translate(-43.74 -13.44)" fill="#f7eae8"/></g></g><g id="_Group_22" data-name="&lt;Group&gt;"><path id="_Compound_Path_5" data-name="&lt;Compound Path&gt;" d="M135.08,271.15a13.75,13.75,0,0,1-6.46-1.55c-.16-.09-15.07-8.92-21-12.38-2.09-1.21-3.12-2.52-3.09-3.88,0-2,2.39-3.22,2.48-3.27s5.44-3.19,10.16-6l-8.37-4.83a7.56,7.56,0,0,0-8.12-.1c-.17.1-12.49,7.34-16.33,9.34a7.66,7.66,0,0,1-7.5,0S74.2,247,70.73,244.8a6.9,6.9,0,0,1-3-6.83V213.82h1v24.24A5.91,5.91,0,0,0,71.26,244c3.45,2.14,6.08,3.66,6.11,3.68a6.71,6.71,0,0,0,6.52,0c3.82-2,16.11-9.22,16.24-9.29s4-2.91,9.16.06c3.18,1.82,6.73,3.88,8.87,5.12,2.72-1.6,5.07-3,5.82-3.46.36-.22.69-.46,1-.69,1.58-1.13,3.21-2.3,6.39-.37,1.35.82,2,1.62,2,2.51,0,1.57-2.07,2.88-5,4.57-4.48,2.6-8.62-.45-8.8-.59h0l-1.4-.81-10.67,6.27s-1.94,1-2,2.43c0,.95.87,2,2.59,3,5.93,3.46,20.85,12.29,21,12.38a13.52,13.52,0,0,0,12.87-.51c7-4.07,12.51-7.45,12.56-7.49L184.69,243l.51.86L155.07,261.6s-5.53,3.42-12.58,7.5A14.61,14.61,0,0,1,135.08,271.15Zm-15.93-27.06,1,.56c.2.15,3.85,2.82,7.75.55,2.35-1.36,4.46-2.67,4.47-3.71,0-.49-.49-1.05-1.48-1.65-2.61-1.58-3.74-.78-5.29.33-.34.24-.69.49-1.06.73C123.8,241.34,121.68,242.6,119.15,244.09Z" transform="translate(-43.74 -13.44)" fill="#fffdfd"/></g><path id="_Path_60" data-name="&lt;Path&gt;" d="M192.14,175.2l-1.72-1h0a2.44,2.44,0,0,0-1.41,0,98.68,98.68,0,0,0-16.63,7.6A132.31,132.31,0,0,0,155.74,193a4.89,4.89,0,0,0-2,3.26v9.14a1.26,1.26,0,0,0,.52,1.14h0l0,0h0l1.61,1a19.91,19.91,0,0,0,3.42-3.18L189,187.67a4.19,4.19,0,0,0,2-3.26v-7.52Z" transform="translate(-43.74 -13.44)" fill="#f0f4e4"/><path id="_Path_61" data-name="&lt;Path&gt;" d="M190.57,175.2a99.08,99.08,0,0,0-16.63,7.6A131.36,131.36,0,0,0,157.31,194a4.9,4.9,0,0,0-2,3.26v9.14c0,1.18.89,1.63,2,1l33.26-18.77a4.17,4.17,0,0,0,2-3.26v-9.14C192.57,175,191.72,174.92,190.57,175.2Z" transform="translate(-43.74 -13.44)" fill="#818e99"/><g id="_Group_23" data-name="&lt;Group&gt;"><g id="_Group_24" data-name="&lt;Group&gt;"><path id="_Path_62" data-name="&lt;Path&gt;" d="M251.36,217.13l4.81-8.47-.88-.38a3.26,3.26,0,0,0-2.42-2.33c-2.15-.37-4.41,1.85-5,4.86-.43,2.24.23,4.22,1.48,5.12h0l.08,0,.23.14Z" transform="translate(-43.74 -13.44)" fill="#475054"/><path id="_Path_63" data-name="&lt;Path&gt;" d="M257,212.82c-.66,2.78-2.76,4.78-4.76,4.56s-3.3-2.7-2.75-5.61,2.83-5.22,5-4.86S257.67,210,257,212.82Z" transform="translate(-43.74 -13.44)" fill="#2d363f"/><path id="_Path_64" data-name="&lt;Path&gt;" d="M255.78,212.75c-.42,1.83-1.76,3.16-3,3s-2-1.78-1.66-3.66,1.79-3.35,3.12-3.14S256.2,210.88,255.78,212.75Z" transform="translate(-43.74 -13.44)" fill="#637e96"/><path id="_Path_65" data-name="&lt;Path&gt;" d="M254.55,212.54c-.2.87-.83,1.5-1.43,1.43s-1-.84-.79-1.74.85-1.58,1.48-1.48S254.75,211.66,254.55,212.54Z" transform="translate(-43.74 -13.44)" fill="#475054"/><path id="_Path_66" data-name="&lt;Path&gt;" d="M253.49,208.05v3s0,.46-.26.5-.39.23-.31.8a.92.92,0,0,0,1.67-.05,3.64,3.64,0,0,0,.24-1.25v-3.78Z" transform="translate(-43.74 -13.44)" fill="#adbcc0"/></g><g id="_Group_25" data-name="&lt;Group&gt;"><path id="_Path_67" data-name="&lt;Path&gt;" d="M255.93,203.45a11.17,11.17,0,0,0-1.44-2.17h-1.35a18.37,18.37,0,0,0-.22-2.51l-4.44,2.68s.39,3.1-.53,4.05l-1.19.7V208l4.89,1.05,3.65-1.93S256.14,204.12,255.93,203.45Z" transform="translate(-43.74 -13.44)" fill="#cfe3e5"/><path id="_Path_68" data-name="&lt;Path&gt;" d="M252.84,208.25c.92-.94.53-4.05.53-4.05l4.43-2.68s.9,5-.84,6.21-5.31,3.15-5.31,3.15v-1.79Z" transform="translate(-43.74 -13.44)" fill="#4a6570"/><polygon id="_Path_69" data-name="&lt;Path&gt;" points="203.03 194.6 207.91 197.44 207.91 195.65 203.03 192.76 203.03 194.6" fill="#8eacbc"/></g></g><g id="_Group_26" data-name="&lt;Group&gt;"><g id="_Group_27" data-name="&lt;Group&gt;"><path id="_Path_70" data-name="&lt;Path&gt;" d="M153.28,236.36l4.81-8.47-.89-.38a3.23,3.23,0,0,0-2.42-2.33c-2.15-.36-4.4,1.85-5,4.86-.43,2.25.22,4.22,1.48,5.12h0l.08.05.23.13Z" transform="translate(-43.74 -13.44)" fill="#475054"/><path id="_Path_71" data-name="&lt;Path&gt;" d="M158.91,232.05c-.65,2.78-2.75,4.79-4.75,4.56s-3.3-2.69-2.75-5.6,2.83-5.23,5-4.87S159.59,229.18,158.91,232.05Z" transform="translate(-43.74 -13.44)" fill="#2d363f"/><path id="_Path_72" data-name="&lt;Path&gt;" d="M157.7,232c-.42,1.83-1.76,3.16-3,3s-2-1.78-1.66-3.66,1.79-3.35,3.11-3.14S158.12,230.11,157.7,232Z" transform="translate(-43.74 -13.44)" fill="#637e96"/><path id="_Path_73" data-name="&lt;Path&gt;" d="M156.47,231.77c-.2.87-.83,1.5-1.43,1.43s-1-.84-.79-1.73.85-1.59,1.47-1.49S156.67,230.89,156.47,231.77Z" transform="translate(-43.74 -13.44)" fill="#475054"/><path id="_Path_74" data-name="&lt;Path&gt;" d="M155.4,227.28v3s0,.46-.25.5-.39.23-.31.81a.92.92,0,0,0,1.67-.06,3.64,3.64,0,0,0,.24-1.25v-3.78Z" transform="translate(-43.74 -13.44)" fill="#adbcc0"/></g><g id="_Group_28" data-name="&lt;Group&gt;"><path id="_Path_75" data-name="&lt;Path&gt;" d="M157.85,222.68a11.5,11.5,0,0,0-1.44-2.17h-1.35a17.44,17.44,0,0,0-.23-2.51l-4.43,2.68s.39,3.11-.53,4l-1.19.7v1.84l4.89,1,3.64-1.92S158.06,223.35,157.85,222.68Z" transform="translate(-43.74 -13.44)" fill="#aec4d3"/><path id="_Path_76" data-name="&lt;Path&gt;" d="M154.76,227.48c.91-.94.53-4,.53-4l4.43-2.68s.9,5.05-.84,6.21-5.31,3.15-5.31,3.15v-1.79Z" transform="translate(-43.74 -13.44)" fill="#4a6570"/><polygon id="_Path_77" data-name="&lt;Path&gt;" points="104.94 213.83 109.83 216.67 109.83 214.88 104.94 211.99 104.94 213.83" fill="#80a3b2"/></g></g><g id="_Group_29" data-name="&lt;Group&gt;"><g id="_Group_30" data-name="&lt;Group&gt;"><path id="_Path_78" data-name="&lt;Path&gt;" d="M183.41,253.67l4.81-8.47-.89-.38a3.23,3.23,0,0,0-2.42-2.33c-2.15-.37-4.4,1.85-5,4.86-.42,2.24.23,4.22,1.49,5.12h0l.08.05.23.14Z" transform="translate(-43.74 -13.44)" fill="#475054"/><path id="_Path_79" data-name="&lt;Path&gt;" d="M189,249.36c-.65,2.78-2.75,4.78-4.75,4.56s-3.3-2.7-2.75-5.61,2.83-5.22,5-4.86S189.72,246.49,189,249.36Z" transform="translate(-43.74 -13.44)" fill="#2d363f"/><path id="_Path_80" data-name="&lt;Path&gt;" d="M187.83,249.29c-.42,1.83-1.76,3.16-3,3s-2-1.78-1.66-3.66,1.79-3.35,3.11-3.14S188.25,247.42,187.83,249.29Z" transform="translate(-43.74 -13.44)" fill="#637e96"/><path id="_Path_81" data-name="&lt;Path&gt;" d="M186.6,249.08c-.2.87-.83,1.5-1.43,1.43s-1-.84-.79-1.74.85-1.58,1.47-1.48S186.8,248.2,186.6,249.08Z" transform="translate(-43.74 -13.44)" fill="#475054"/><path id="_Path_82" data-name="&lt;Path&gt;" d="M185.53,244.59v3s0,.46-.25.5-.39.23-.31.81a.92.92,0,0,0,1.67-.06,3.64,3.64,0,0,0,.24-1.25V243.8Z" transform="translate(-43.74 -13.44)" fill="#adbcc0"/></g><g id="_Group_31" data-name="&lt;Group&gt;"><path id="_Path_83" data-name="&lt;Path&gt;" d="M188,240a11.17,11.17,0,0,0-1.44-2.17h-1.35a17.44,17.44,0,0,0-.23-2.51L180.53,238s.38,3.1-.53,4l-1.19.7v1.84l4.89,1,3.64-1.92S188.19,240.66,188,240Z" transform="translate(-43.74 -13.44)" fill="#aec4d3"/><path id="_Path_84" data-name="&lt;Path&gt;" d="M184.89,244.79c.91-.94.53-4,.53-4l4.43-2.68s.9,5.05-.84,6.21-5.31,3.15-5.31,3.15v-1.79Z" transform="translate(-43.74 -13.44)" fill="#4a6570"/><polygon id="_Path_85" data-name="&lt;Path&gt;" points="135.07 231.14 139.96 233.98 139.96 232.19 135.07 229.3 135.07 231.14" fill="#80a3b2"/></g></g><g id="_Group_32" data-name="&lt;Group&gt;"><path id="_Path_86" data-name="&lt;Path&gt;" d="M207.3,186.23h-1.93V170.65a12.87,12.87,0,0,1,2.11-7.26c2.81-3.85,18.12-23.2,18.77-24,.33-.43,2.14-2.64,4-2,1.46.5,2.14,2.45,2.14,6.15v12.07h-1.92V143.5c0-3.93-.83-4.32-.84-4.33-.3-.1-1.25.61-1.84,1.38-.17.22-16,20.16-18.74,24a11,11,0,0,0-1.73,6.08Z" transform="translate(-43.74 -13.44)" fill="#fff"/></g><path id="_Path_87" data-name="&lt;Path&gt;" d="M265.32,169.23A145,145,0,0,0,247,156.55,101,101,0,0,0,228.75,148a1.76,1.76,0,0,0-1.85,0h0l.31-.21-.66.44-1.17.76,1.17,5.74v14.64a4.85,4.85,0,0,0,2.2,3.76l31.77,18.41,4.63,4.08,1.72-1.13h0l.07-.05h0a1.52,1.52,0,0,0,.57-1.32V173C267.52,171.61,266.39,170.16,265.32,169.23Z" transform="translate(-43.74 -13.44)" fill="#f4f7eb"/><path id="_Path_88" data-name="&lt;Path&gt;" d="M263.58,170.39a144.1,144.1,0,0,0-18.28-12.68A100.62,100.62,0,0,0,227,149.19c-1.38-.61-2.19-.16-2.19,1.22v20.18a4.84,4.84,0,0,0,2.19,3.76l36.57,21.19c1.22.7,2.2.16,2.2-1.21V174.15C265.78,172.77,264.69,171.37,263.58,170.39Z" transform="translate(-43.74 -13.44)" fill="#818e99"/><polygon id="_Path_89" data-name="&lt;Path&gt;" points="142.5 231.46 104.79 209.13 104.79 203.48 142.5 225.32 142.5 231.46" fill="#96a5a8"/><path id="_Path_90" data-name="&lt;Path&gt;" d="M267.21,182.81h0v-5.28l-3.71.16-.31,1.89-4-2.4L239.13,210l4.11,2.36L266.84,184A1.62,1.62,0,0,0,267.21,182.81Z" transform="translate(-43.74 -13.44)" fill="#96aaa9"/><path id="_Path_91" data-name="&lt;Path&gt;" d="M243.24,206.92l23.6-28.27a1.65,1.65,0,0,0-.41-2.48l-7.19-4.36-20.11,32.81Z" transform="translate(-43.74 -13.44)" fill="#f0f4e4"/><polygon id="_Path_92" data-name="&lt;Path&gt;" points="143.43 224.92 199.5 193.48 191.49 188.51 143.43 221.36 143.43 224.92" fill="#cfd3c2"/><path id="_Path_93" data-name="&lt;Path&gt;" d="M260.87,176.29h0l-2.54-6.95h-6.87l-15.74-8.46a5.91,5.91,0,0,0-7.37,1.45l-13.7,16.49,25.91,26.62,2.94-3.7,16.32-19.92A5.93,5.93,0,0,0,260.87,176.29Z" transform="translate(-43.74 -13.44)" fill="#46646d"/><path id="_Path_94" data-name="&lt;Path&gt;" d="M210.28,175l15.77-19.17a5.91,5.91,0,0,1,7.37-1.45l22.31,12a5.92,5.92,0,0,1,1.79,9l-18.39,22.59Z" transform="translate(-43.74 -13.44)" fill="#bcceae"/><path id="_Path_95" data-name="&lt;Path&gt;" d="M152.26,203.82l50.65-29.14s5.93-3.71,11.22-.67,18.27,10.26,18.27,10.26,6.73,3.53,6.73,7.21v6.41l-55,31.58Z" transform="translate(-43.74 -13.44)" fill="#24bc85"/><polygon id="_Path_96" data-name="&lt;Path&gt;" points="140.42 216.02 140.42 225.32 195.39 194.22 195.39 184.45 140.42 216.02" fill="#46646d"/><polygon id="_Path_97" data-name="&lt;Path&gt;" points="195.39 181.72 195.39 191.18 196.82 192 196.82 182.69 195.39 181.72" fill="#2e4a51"/><path id="_Path_98" data-name="&lt;Path&gt;" d="M232.77,173.92c-11.41-6.45-15.23-8.72-13.33-13.26s3.37-7.28,7.18-10.39,10.72-.23,18.33,3.12,16.42,9.27,17.12,12.94-3.42,11.69-7.73,13.5S242.54,179.44,232.77,173.92Z" transform="translate(-43.74 -13.44)" fill="#f7f5f0"/><polygon id="_Path_99" data-name="&lt;Path&gt;" points="199.5 193.48 199.5 198.91 142.5 231.46 142.5 225.32 199.5 193.48" fill="#818e99"/><path id="_Path_100" data-name="&lt;Path&gt;" d="M252.22,178.47a15,15,0,0,1,1.47-7.74,12.92,12.92,0,0,1,5.43-4.94.78.78,0,0,1,1.13.59,10.14,10.14,0,0,1-1.7,6.67C255.64,177.73,252.22,178.47,252.22,178.47Z" transform="translate(-43.74 -13.44)" fill="#818e99"/><path id="_Path_101" data-name="&lt;Path&gt;" d="M268.48,163.7c0-3.7-.68-5.65-2.14-6.14-1.84-.63-3.65,1.58-4,2-.65.82-16,20.17-18.77,24a12.83,12.83,0,0,0-2.11,7.25v15.58h0a.91.91,0,0,0,.91.84h.08a.91.91,0,0,0,.91-.84h0V190.81a11,11,0,0,1,1.73-6.08c2.8-3.82,18.57-23.76,18.74-24,.59-.78,1.54-1.48,1.84-1.38,0,0,.84.39.84,4.32v12.07h0a.92.92,0,0,0,.91.89h.09a.9.9,0,0,0,.91-.89h0Z" transform="translate(-43.74 -13.44)" fill="#5f818e"/><path id="_Path_102" data-name="&lt;Path&gt;" d="M176,237.32h-.12a.87.87,0,0,0-.45.12v0l-4.95,3-.15.11a6.6,6.6,0,0,1-2.7.81,10.34,10.34,0,0,1-4.85-.73l-11.93-7.06a43.14,43.14,0,0,1-4.89-3.22,10.19,10.19,0,0,1,2,.54c3.41,1.53,4.9.92,5.34.64l5.13-3h0a1,1,0,0,0,.5-.85v0a1,1,0,0,0-1-1h-.12a.89.89,0,0,0-.43.11l0,0-5.16,3.05h0c-.1,0-1,.32-3.43-.75-.05,0-4.68-1.83-5.63,0-.63,1.21.23,2.52,6.62,6.3l12,7.1.11,0a13.28,13.28,0,0,0,4.75,1,8.13,8.13,0,0,0,1.3-.1,8.3,8.3,0,0,0,3.64-1.22l4.88-2.92h0a1,1,0,0,0,.52-.85v0A1,1,0,0,0,176,237.32Z" transform="translate(-43.74 -13.44)" fill="#818e99"/><path id="_Path_103" data-name="&lt;Path&gt;" d="M153.74,230h0a.94.94,0,0,0-.45-.11h-.12a1,1,0,0,0-1,1v0a1,1,0,0,0,.53.85v0l17.73,10.36,1-1.76Z" transform="translate(-43.74 -13.44)" fill="#818e99"/><polygon id="_Path_104" data-name="&lt;Path&gt;" points="199.5 198.91 222.04 186.05 214.16 181.29 212.8 182.91 217.69 185.94 203.33 194.26 199.5 198.91" fill="#9db2c4"/><polygon id="_Path_105" data-name="&lt;Path&gt;" points="147.36 228.63 147.36 230.93 222.04 188.51 222.04 186.05 147.36 228.63" fill="#4a6570"/><polygon id="_Path_106" data-name="&lt;Path&gt;" points="147.36 230.93 145.44 229.78 147.36 228.63 147.36 230.93" fill="#bbbfaf"/><polygon id="_Path_107" data-name="&lt;Path&gt;" points="211.35 184.69 215.45 187.24 217.69 185.94 212.8 182.91 211.35 184.69" fill="#4a6570"/><polygon id="_Path_108" data-name="&lt;Path&gt;" points="210.95 189.84 208.37 188.26 210.56 185.64 214.31 187.9 210.95 189.84" fill="#9db2c4"/><polygon id="_Path_109" data-name="&lt;Path&gt;" points="206.84 190.1 208.37 188.26 210.95 189.84 208.63 191.19 206.84 190.1" fill="#4a6570"/><path id="_Path_110" data-name="&lt;Path&gt;" d="M213.76,175.07l7.2-9a7.91,7.91,0,0,1,3.12-1.64c1.37-.16,6.22.82,6.22.82l6.57,3.45s5.28,2.92,5.28,5.26c0,4.5-1.41,11.25-3.78,13.34a24.47,24.47,0,0,1-2.2,1.68l-20.93-11.87Z" transform="translate(-43.74 -13.44)" fill="#22bfbf"/><path id="_Path_111" data-name="&lt;Path&gt;" d="M237.46,164.64a11.7,11.7,0,0,0-.86,3c0,1,.27,1.06.27,1.06l-7,2.06.43-5.51a5.22,5.22,0,0,0,1.27-1.62,26.23,26.23,0,0,0,1.34-3.15Z" transform="translate(-43.74 -13.44)" fill="#efc286"/><path id="_Path_112" data-name="&lt;Path&gt;" d="M233.27,155.17S231,161,231.69,162.3s1,2.25,2.56,2.33a5.76,5.76,0,0,0,4-1,36.92,36.92,0,0,0,3.12-2.84l.24-3.57s-4.49-4.33-6-3.61A8.27,8.27,0,0,0,233.27,155.17Z" transform="translate(-43.74 -13.44)" fill="#f9d2a2"/><path id="_Path_113" data-name="&lt;Path&gt;" d="M234.46,152.69a3.39,3.39,0,0,0-1.76,1.54c-.31.59-.67,2-.19,2.71s0-1.61,1.45-2-.24-.18.82.83a6.29,6.29,0,0,0,4.12,1.8c1.76.11,2.56.32,1.81,1.12a3.68,3.68,0,0,1-1.17,1s1.36.11,1.12,1.06a2.49,2.49,0,0,1-1.77,1.79c-.63.06-.47,0-.47,0a7,7,0,0,1-1,1.29,2.64,2.64,0,0,1-1.07.65,3.22,3.22,0,0,0,2.44.16,4.27,4.27,0,0,0,1.82-1.16,2.23,2.23,0,0,0,1.87-.53,3.74,3.74,0,0,0,.69-2,8,8,0,0,0,1.34-2.46,4.34,4.34,0,0,0-.91-4.28c-1.55-1.71-2.94-2.18-4.28-2.12s-1.46-.64-3-.54A2.35,2.35,0,0,0,234.46,152.69Z" transform="translate(-43.74 -13.44)" fill="#683307"/><path id="_Path_114" data-name="&lt;Path&gt;" d="M230.3,165.26l-.53-.1a.81.81,0,0,0-1,.73l-.49,5.93a1,1,0,0,0,1.26,1l7.75-2.73a.55.55,0,0,0,.12-1l-.58-.38-7,2.06Z" transform="translate(-43.74 -13.44)" fill="#0a8e8a"/><path id="_Path_115" data-name="&lt;Path&gt;" d="M239.13,170.2h0a6,6,0,0,1,1.43,5.54c-1.09,4.7-7.83,8.72-7.83,8.72s1.36,2,.89,3l2.55,1.45a24.47,24.47,0,0,0,2.2-1.68c2.37-2.09,6.34-8.07,4.61-12.59A12.16,12.16,0,0,0,239.13,170.2Z" transform="translate(-43.74 -13.44)" fill="#239189"/><path id="_Path_116" data-name="&lt;Path&gt;" d="M239.13,197.78v-6.41c0-3.69-6.73-7.21-6.73-7.21s-13-7.21-18.27-10.26-11.22.67-11.22.67l-2.68,1.54c1.87-.9,6.27-2.5,10.3-.18,5.29,3,18.27,10.26,18.27,10.26s6.73,3.52,6.73,7.21v6.41Z" transform="translate(-43.74 -13.44)" fill="#bcf7c5"/><path id="_Path_117" data-name="&lt;Path&gt;" d="M182.17,227.92l2,1.59,55-31.58v-6.41a4.26,4.26,0,0,0-.81-2.33l-51.15,29Z" transform="translate(-43.74 -13.44)" fill="#9db7c6" style="mix-blend-mode:multiply"/><path id="_Path_118" data-name="&lt;Path&gt;" d="M185,214.42a144.67,144.67,0,0,0-18.29-12.68,101,101,0,0,0-18.28-8.51,1.74,1.74,0,0,0-1.85,0h0l.31-.21-.66.43-1.17.77L146.2,200v14.64a4.79,4.79,0,0,0,2.2,3.76l31.77,18.42,4.63,4.08,1.72-1.13h0l.07,0h0a1.53,1.53,0,0,0,.57-1.33V218.18C187.17,216.81,186,215.36,185,214.42Z" transform="translate(-43.74 -13.44)" fill="#f0f4e4"/><path id="_Path_119" data-name="&lt;Path&gt;" d="M183.23,215.58A145.56,145.56,0,0,0,165,202.91a100.62,100.62,0,0,0-18.29-8.52c-1.38-.61-2.2-.16-2.2,1.21v20.19a4.82,4.82,0,0,0,2.2,3.75l36.57,21.2c1.22.7,2.2.16,2.2-1.22V219.34C185.43,218,184.34,216.56,183.23,215.58Z" transform="translate(-43.74 -13.44)" fill="#bbceaf"/><path id="_Path_120" data-name="&lt;Path&gt;" d="M230.5,197.43l-1.72-1h0a2.36,2.36,0,0,0-1.41,0,99.32,99.32,0,0,0-16.64,7.59,132,132,0,0,0-16.63,11.18,4.87,4.87,0,0,0-2,3.26v9.13a1.25,1.25,0,0,0,.53,1.14h0l0,0,0,0,1.61.95a20.13,20.13,0,0,0,3.42-3.17l29.65-16.73a4.18,4.18,0,0,0,2-3.26v-7.51Z" transform="translate(-43.74 -13.44)" fill="#f0f4e4"/><path id="_Path_121" data-name="&lt;Path&gt;" d="M228.93,197.43A98.06,98.06,0,0,0,212.3,205a132.31,132.31,0,0,0-16.64,11.17,4.92,4.92,0,0,0-2,3.27v9.13c0,1.18.89,1.63,2,1l33.27-18.77a4.19,4.19,0,0,0,2-3.26v-9.14C230.93,197.25,230.07,197.15,228.93,197.43Z" transform="translate(-43.74 -13.44)" fill="#9db2c4"/><path id="_Path_122" data-name="&lt;Path&gt;" d="M226.75,218.78v-6.2l-.1-3.76c0-1.54-.43-2.49-1.32-2.91-1.24-.59-2.38.21-3.05.55-1.2.65-15.22,8.28-18.42,10.31-3.37,2.15-3.1,4.17-3.09,5.31v10.31s0,.06,0,.08v0a1,1,0,1,0,1.93,0h0V222a4,4,0,0,1,2.2-3.59c3.27-2,18.22-10.2,18.37-10.28l.13-.09c.45-.27.91-.49,1.14-.35s.18.25.2,1.19l.1,3.73v6.18h0v0a1,1,0,1,0,1.92,0v0Z" transform="translate(-43.74 -13.44)" fill="#f0f4e4"/><path id="_Path_123" data-name="&lt;Path&gt;" d="M233.12,198.61,232,198l-.06,0h0a.47.47,0,0,0-.39.05l-2,1.16a1.59,1.59,0,0,0-.68,1.29l0,5.58a.59.59,0,0,0,.23.54l1.18.68.47-1.39.81-.47a1.63,1.63,0,0,0,.69-1.29v-2.7Z" transform="translate(-43.74 -13.44)" fill="#4a6570"/><path id="_Path_124" data-name="&lt;Path&gt;" d="M232.67,206l-2,1.15c-.37.22-.68,0-.67-.51l0-5.59a1.63,1.63,0,0,1,.68-1.29l2-1.15c.38-.21.68,0,.68.51l0,5.59A1.63,1.63,0,0,1,232.67,206Z" transform="translate(-43.74 -13.44)" fill="#f0f4e4"/><path id="_Path_125" data-name="&lt;Path&gt;" d="M232.52,202.07l-1.7,1c-.11.06-.2,0-.2-.16v-1.69a.49.49,0,0,1,.2-.39l1.7-.95c.11-.06.2,0,.2.16v1.69A.49.49,0,0,1,232.52,202.07Z" transform="translate(-43.74 -13.44)" fill="#d32c16"/><path id="_Path_126" data-name="&lt;Path&gt;" d="M232.52,205.07l-1.7.94c-.11.06-.2,0-.2-.16v-1.69a.49.49,0,0,1,.2-.39l1.7-.94c.11-.07.2,0,.2.15v1.69A.51.51,0,0,1,232.52,205.07Z" transform="translate(-43.74 -13.44)" fill="#185bd1"/><g id="_Group_33" data-name="&lt;Group&gt;"><path id="_Path_127" data-name="&lt;Path&gt;" d="M232.64,211.25a1.31,1.31,0,0,1-.74-.21,1.48,1.48,0,0,1-.54-1.35l0-3.49H232l0,3.52c0,.05-.05.59.26.79s.76.25,2.15-.54l5.28-3,.31.56-5.28,3A4.55,4.55,0,0,1,232.64,211.25Z" transform="translate(-43.74 -13.44)" fill="#fff"/></g><path id="_12-2" data-name="12" d="M281.6,81.74c.65-.28,1.56.4,2,1.52s.33,2.24-.32,2.52-1.56-.41-2-1.52S281,82,281.6,81.74Z" transform="translate(-43.74 -13.44)" fill="#bfcfd1"/><g id="_Group_34" data-name="&lt;Group&gt;"><g id="_11" data-name="11"><path id="_Path_128" data-name="&lt;Path&gt;" d="M223.7,118.73s8.3-1.38,13.05-4c4.44-2.5,7.95-7.61,7.95-7.61V220.79s-.75,5-8,8.76c-5.25,2.7-13,2.9-13,2.9Z" transform="translate(-43.74 -13.44)" fill="url(#linear-gradient-29)"/><path id="_Path_129" data-name="&lt;Path&gt;" d="M244.7,107.07a13.7,13.7,0,0,0,8.52-1.95,13.45,13.45,0,0,0,5.86-6.63V212.93s0,3.71-5,6.44a15.69,15.69,0,0,1-9.33,1.42Z" transform="translate(-43.74 -13.44)" fill="url(#linear-gradient-30)"/><path id="_Path_130" data-name="&lt;Path&gt;" d="M259.08,98.49s1.37,1.5,5.24-.54a7.06,7.06,0,0,0,3.23-4V206.58s-.26,4.09-3.52,5.92a4.9,4.9,0,0,1-4.95-.29Z" transform="translate(-43.74 -13.44)" fill="url(#linear-gradient-31)"/><path id="_Path_131" data-name="&lt;Path&gt;" d="M267.55,93.91a13.67,13.67,0,0,0,8.51-2,13.45,13.45,0,0,0,5.86-7V199.77s0,3.71-5.05,6.44a15.66,15.66,0,0,1-9.32,1.42Z" transform="translate(-43.74 -13.44)" fill="url(#linear-gradient-32)"/><path id="_Path_132" data-name="&lt;Path&gt;" d="M282.6,80.23c.94-.4,2.27.59,2.95,2.22s.48,3.26-.46,3.66a3.62,3.62,0,0,1-3-.69c-.37-.38.28-.94,0-1.52S281,83.27,281,82.7A3.66,3.66,0,0,1,282.6,80.23Z" transform="translate(-43.74 -13.44)" fill="#444b66"/><path id="_Path_133" data-name="&lt;Path&gt;" d="M192.57,137.31h0a1.41,1.41,0,0,1,.5-1.94L280.92,83a1.42,1.42,0,0,1,1.94.5h0a1.41,1.41,0,0,1-.5,1.94l-87.85,52.41A1.42,1.42,0,0,1,192.57,137.31Z" transform="translate(-43.74 -13.44)" fill="#fff"/><path id="_Path_134" data-name="&lt;Path&gt;" d="M192.33,134c.94-.4,2.27.59,2.95,2.21s.48,3.27-.46,3.67a3.62,3.62,0,0,1-3-.69c-.37-.38.28-.94,0-1.52s-1.11-.63-1.11-1.2A3.66,3.66,0,0,1,192.33,134Z" transform="translate(-43.74 -13.44)" fill="#444b66"/></g><path id="_10" data-name="10" d="M191.34,135.54c.65-.28,1.56.4,2,1.52s.33,2.24-.32,2.52-1.56-.41-2-1.52S190.69,135.81,191.34,135.54Z" transform="translate(-43.74 -13.44)" fill="#e9eff2"/></g><g id="_Group_35" data-name="&lt;Group&gt;"><path id="_Path_135" data-name="&lt;Path&gt;" d="M193.71,262.57a7.94,7.94,0,0,0-.89,3.07,6.4,6.4,0,0,1,0,1.61l2.21.91.53-.91.3,1.44s2.87,2.34,4.68,2.72,4.85-.7,4.86-1.21a6.38,6.38,0,0,0-2.13-2.95c-1.15-1-2.66-4.68-2.66-4.68Z" transform="translate(-43.74 -13.44)" fill="#353d3d"/><path id="_Path_136" data-name="&lt;Path&gt;" d="M200.2,264.1l-1.73.48a.34.34,0,0,1-.42-.24h0a.34.34,0,0,1,.24-.42l1.73-.48a.33.33,0,0,1,.41.24h0A.34.34,0,0,1,200.2,264.1Z" transform="translate(-43.74 -13.44)" fill="#f6f9ed"/><path id="_Path_137" data-name="&lt;Path&gt;" d="M201,265.22l-1.73.48a.34.34,0,0,1-.42-.24h0a.34.34,0,0,1,.24-.42l1.73-.47a.34.34,0,0,1,.42.23h0A.34.34,0,0,1,201,265.22Z" transform="translate(-43.74 -13.44)" fill="#f6f9ed"/></g><g id="_Group_36" data-name="&lt;Group&gt;"><path id="_Path_138" data-name="&lt;Path&gt;" d="M204.69,259.41a7.45,7.45,0,0,0-.82,2.86,6.13,6.13,0,0,1,0,1.49l2,.84.49-.84.28,1.33s2.66,2.18,4.34,2.53,4.5-.65,4.51-1.12a6,6,0,0,0-2-2.74c-1.07-.9-2.47-4.35-2.47-4.35Z" transform="translate(-43.74 -13.44)" fill="#353d3d"/><path id="_Path_139" data-name="&lt;Path&gt;" d="M210.72,260.84l-1.61.44a.31.31,0,0,1-.39-.22h0a.32.32,0,0,1,.22-.39l1.61-.44a.31.31,0,0,1,.39.22h0A.33.33,0,0,1,210.72,260.84Z" transform="translate(-43.74 -13.44)" fill="#f6f9ed"/><path id="_Path_140" data-name="&lt;Path&gt;" d="M211.42,261.88l-1.6.44a.31.31,0,0,1-.39-.22h0a.31.31,0,0,1,.22-.39l1.61-.44a.3.3,0,0,1,.38.22h0A.31.31,0,0,1,211.42,261.88Z" transform="translate(-43.74 -13.44)" fill="#f6f9ed"/></g><path id="_Path_141" data-name="&lt;Path&gt;" d="M204.9,222.31s-.44,14.85-.35,21.1-.35,16.16-.35,16.16a7.44,7.44,0,0,0,4.75,1.27c2.78-.24,2.85-.67,2.85-.67l1.26-18.32s.78-2.26,1.3-12.43,0-13.08,0-13.08l-3.73-7.78-6.12,10.7Z" transform="translate(-43.74 -13.44)" fill="#30c18d"/><path id="_Path_142" data-name="&lt;Path&gt;" d="M193.31,220.05s-.31,20.52-.1,23.81,0,1.18,0,1.18l-.53,17.63a8.41,8.41,0,0,0,4.11,1.42c2.25.08,4.84-1.69,4.84-1.69s1.24-17.64,1.41-18.52,1.27-11.95,2.14-19C206.87,211,193.31,220.05,193.31,220.05Z" transform="translate(-43.74 -13.44)" fill="#39d398"/><path id="_Path_143" data-name="&lt;Path&gt;" d="M200.91,223.88l-9.24-2.3s-.78.11-.45-2.8,1.58-20.36.45-27.76a48.24,48.24,0,0,1-.53-12.12s6.1-4.24,7.46-4,7.48-1.77,7.48-1.77l5.57.45a7.66,7.66,0,0,1,2.75,2.69c1.39,2.08,3,9.35,3,9.35L215.51,195v8.53a90.9,90.9,0,0,0,0,10.83c.41,3.15.48,4.92,0,5.41s-4.08,2-5,.2-.64-9.56-.64-9.56-1.18,11-3.5,12A28.77,28.77,0,0,1,200.91,223.88Z" transform="translate(-43.74 -13.44)" fill="#18936d"/><path id="_Path_144" data-name="&lt;Path&gt;" d="M205.72,171.89a8.1,8.1,0,0,0,.09,4.07,10.13,10.13,0,0,0,1.81,3.83v2.44l-5.88-3.87-3.06-4.15c1-2.11,1.3-7,1.3-7l6,3.11Z" transform="translate(-43.74 -13.44)" fill="#efc286"/><g id="_Group_37" data-name="&lt;Group&gt;"><path id="_Path_145" data-name="&lt;Path&gt;" d="M200.29,189.26s-2.35-3.9-4.65-8.28c-1.75-3.34,1.77-6.7,1.79-6.73v1c-.08.09-2.66,2.54-1.15,5.42,2.29,4.36,4.61,8.2,4.63,8.24Z" transform="translate(-43.74 -13.44)" fill="#fff"/></g><path id="_Path_146" data-name="&lt;Path&gt;" d="M202.84,191.15a1.83,1.83,0,1,1-.51-2.44A1.77,1.77,0,0,1,202.84,191.15Z" transform="translate(-43.74 -13.44)" fill="#f0f4e4"/><path id="_Path_147" data-name="&lt;Path&gt;" d="M202.89,190.72a1.5,1.5,0,1,1-.41-2A1.44,1.44,0,0,1,202.89,190.72Z" transform="translate(-43.74 -13.44)" fill="#41434f"/><path id="_Path_148" data-name="&lt;Path&gt;" d="M202.53,190.46a1,1,0,0,1-1.43.2,1,1,0,1,1,1.43-.2Z" transform="translate(-43.74 -13.44)" fill="#78b6c1"/><g id="_Group_38" data-name="&lt;Group&gt;"><path id="_Path_149" data-name="&lt;Path&gt;" d="M211.6,187.46c-.07-1.69-3.93-9.51-5.41-12.39l.64-.33c.22.43,5.4,10.49,5.5,12.69Z" transform="translate(-43.74 -13.44)" fill="#fff"/></g><path id="_Path_150" data-name="&lt;Path&gt;" d="M209.73,191.71l-.08,0s-.24.12.18-.57l.42-.7,2-.06c.18,0,.79-1,.79-1l-2.71-.3a2.76,2.76,0,0,0-1.48.48,16.7,16.7,0,0,0-2,2.77l-1.21.91.75.8C207.46,193.22,208.85,192.29,209.73,191.71Z" transform="translate(-43.74 -13.44)" fill="#efc286"/><g id="_Group_39" data-name="&lt;Group&gt;"><path id="_Path_151" data-name="&lt;Path&gt;" d="M217.13,195.15l-7.43,4.37c-.47.28-.86,0-.87-.64l2-13a2,2,0,0,1,.85-1.65l7.43-4.38c.47-.27.86,0,.86.65l-2,13A2.09,2.09,0,0,1,217.13,195.15Z" transform="translate(-43.74 -13.44)" fill="#f0f4e4"/><path id="_Path_152" data-name="&lt;Path&gt;" d="M218.24,195.65,210.81,200c-.47.28-.86,0-.87-.64l2-13a2,2,0,0,1,.85-1.65l7.42-4.37c.48-.28.87,0,.87.64l-2,13A2.06,2.06,0,0,1,218.24,195.65Z" transform="translate(-43.74 -13.44)" fill="#46646d"/><path id="_Path_153" data-name="&lt;Path&gt;" d="M216.23,185.33h0c-.48.19-.8-.13-.71-.72l.46-3a2,2,0,0,1,1-1.41h0c.48-.19.8.14.71.73l-.46,3A2,2,0,0,1,216.23,185.33Z" transform="translate(-43.74 -13.44)" fill="#ff3222"/></g><path id="_Path_154" data-name="&lt;Path&gt;" d="M214.16,190.57a25,25,0,0,1-3,1.24,2.78,2.78,0,0,1-1.46-.09c-.87.57-2.27,1.5-3.37,2.28l2,2.16a9,9,0,0,1,1.16,0c0,.05,3.24-.37,4.29-1.52s.75-1.5,1.23-3.12S214.16,190.57,214.16,190.57Z" transform="translate(-43.74 -13.44)" fill="#efc286"/><path id="_Path_155" data-name="&lt;Path&gt;" d="M198.38,199.7a115,115,0,0,0-3-16.93c-1.08-3-2.33-5.25-3.69-4.34s-2.52,2.32-2.76,6.27,4.4,21.57,5.85,23,2.34,1.29,3.79.11,10.28-11.5,10.28-11.5a4.85,4.85,0,0,0-1.5-2.27c-1.18-1-1.66-1.44-1.66-1.44Z" transform="translate(-43.74 -13.44)" fill="#49e2ab"/><path id="_Path_156" data-name="&lt;Path&gt;" d="M218.46,184.12h0c-.48.19-.8-.14-.71-.73l.46-3a1.92,1.92,0,0,1,1-1.41h0c.48-.19.79.13.71.72l-.46,3A2,2,0,0,1,218.46,184.12Z" transform="translate(-43.74 -13.44)" fill="#2773e2"/><path id="_Path_157" data-name="&lt;Path&gt;" d="M207.62,182.23l-6.54-5.41L199,173s-2.45,1.48-2.45,2.64,1.81,3.42,1.81,3.42l2.3-2.06L199,179.55Z" transform="translate(-43.74 -13.44)" fill="#49e2ab"/><path id="_Path_158" data-name="&lt;Path&gt;" d="M207.62,182.23l.75-5.65-2.08-1,2.26.37v-1.14a4.48,4.48,0,0,0-2.08-1.65c-.87-.23-.95.13-.95.13v1.86l1.35,5Z" transform="translate(-43.74 -13.44)" fill="#49e2ab"/><path id="_Path_159" data-name="&lt;Path&gt;" d="M203.56,172.34s2.27,1.13,3.27,0a11.1,11.1,0,0,0,2-7.46,11.79,11.79,0,0,0-1.76-5.5l-9.34,2.94,1.79,5.59.06,1.33Z" transform="translate(-43.74 -13.44)" fill="#f9d2a2"/><path id="_Path_160" data-name="&lt;Path&gt;" d="M199.55,160.38A5.11,5.11,0,0,1,204,156.5c2.49-.18,5.47,2.55,6.37,4.72a3.72,3.72,0,0,1-1.06,4.57c-.79.62-4.82-.69-6.84-2.1A9.56,9.56,0,0,1,199.55,160.38Z" transform="translate(-43.74 -13.44)" fill="#6b2620"/><path id="_Path_161" data-name="&lt;Path&gt;" d="M201.3,158.56s-1.82-.51-2.84.31-2.43,3.82-2,5.52,1.06,4,2.2,4.75a2.66,2.66,0,0,0,1.84.57l-.19-1.77a2.51,2.51,0,0,1-1.1-2,1.23,1.23,0,0,1,1.15-1.2,2.9,2.9,0,0,1,.34-1.8,9.67,9.67,0,0,1,2.29-1.32Z" transform="translate(-43.74 -13.44)" fill="#6b2620"/><polygon id="_Path_162" data-name="&lt;Path&gt;" points="243.23 202.5 216.19 186.5 216.19 214.53 243.23 230.67 243.23 202.5" fill="#aeb7a1"/><polygon id="_Path_163" data-name="&lt;Path&gt;" points="243.23 230.67 243.23 202.5 264.46 190.04 264.46 218.5 243.23 230.67" fill="#6b878e"/><polygon id="_Path_164" data-name="&lt;Path&gt;" points="216.19 186.5 238.27 174.19 264.46 190.04 243.23 202.5 216.19 186.5" fill="#eaefe1"/><path id="_Path_165" data-name="&lt;Path&gt;" d="M282.86,223.41l-19.4-11.5a2.74,2.74,0,0,1-1.12-2.21l0-3.29c0-.85.53-1.24,1.16-.86l19.4,11.5a2.74,2.74,0,0,1,1.12,2.21l0,3.29C284,223.4,283.49,223.79,282.86,223.41Z" transform="translate(-43.74 -13.44)" fill="#4a6f77"/><polygon id="_Path_166" data-name="&lt;Path&gt;" points="220.21 198.03 239.3 209.06 228.74 213.58 211.33 200.78 220.21 198.03" fill="#aeb7a1"/><polygon id="_Path_167" data-name="&lt;Path&gt;" points="240.33 204.69 227.8 211.77 228.79 217.08 240.33 210.22 240.33 204.69" fill="#6b878e"/><path id="_Path_168" data-name="&lt;Path&gt;" d="M276.88,219.31l-6.53,3.78A3.69,3.69,0,0,1,267,223l-3.88-2.24c-1-.56-1.09-1.42-.24-1.91l6.53-3.78a3.69,3.69,0,0,1,3.32.14l3.88,2.24C277.63,218,277.73,218.82,276.88,219.31Z" transform="translate(-43.74 -13.44)" fill="#353d3d"/><path id="_Path_169" data-name="&lt;Path&gt;" d="M276.88,217.47l-6.53,3.78a3.69,3.69,0,0,1-3.32-.14l-3.88-2.24c-1-.57-1.09-1.42-.24-1.92l6.53-3.77a3.69,3.69,0,0,1,3.32.14l3.88,2.24C277.63,216.12,277.73,217,276.88,217.47Z" transform="translate(-43.74 -13.44)" fill="#f7f5f0"/><polygon id="_Path_170" data-name="&lt;Path&gt;" points="220.21 192.49 207.68 199.57 208.67 204.88 220.21 198.03 220.21 192.49" fill="#6b878e"/><path id="_Path_171" data-name="&lt;Path&gt;" d="M282.83,217l-10.08,6.1h0l-19.21-11.29,10.56-5.94s0-.23-.54-.47-1.52.52-1.52.52l-10.62,6.2V213l.92-.52,19.75,11.83h0l.79.86,11.18-6.56v-.5C284.06,217.63,282.83,217,282.83,217Z" transform="translate(-43.74 -13.44)" fill="#dce2d3"/><path id="_Path_172" data-name="&lt;Path&gt;" d="M271.89,230.38l-19.77-11.74a2.75,2.75,0,0,1-1.12-2.22l0-3.29c0-.85.53-1.23,1.16-.86L272,224a2.71,2.71,0,0,1,1.12,2.21l0,3.29C273,230.37,272.52,230.76,271.89,230.38Z" transform="translate(-43.74 -13.44)" fill="#f0f4e4"/><path id="_Path_173" data-name="&lt;Path&gt;" d="M262.84,223.18,259,220.85a1.14,1.14,0,0,1-.38-1.57h0a1.14,1.14,0,0,1,1.56-.38l3.83,2.33a1.16,1.16,0,0,1,.38,1.57h0A1.16,1.16,0,0,1,262.84,223.18Z" transform="translate(-43.74 -13.44)" fill="#445f63"/><path id="_Path_174" data-name="&lt;Path&gt;" d="M283.14,177h-6.79s-2.8,1.59-2.84,4.3,2.84,16.11,2.84,16.11c0,1.08,1.43,2,3.2,2s3.2-.87,3.2-2c0,0,3.17-13.48,3.28-16.11S283.14,177,283.14,177Z" transform="translate(-43.74 -13.44)" fill="url(#linear-gradient-33)"/><path id="_8" data-name="8" d="M278.46,175.17s-.45,3.53,2.56,4.88,5.2,2.06,5.32,3.31,1.92-3.11,1-6.14a6,6,0,0,0-6-4.46A2.8,2.8,0,0,0,278.46,175.17Z" transform="translate(-43.74 -13.44)" fill="url(#linear-gradient-34)"/><path id="_Path_175" data-name="&lt;Path&gt;" d="M281.92,174s1.12,4.38-2.88,6.44-6.92,3.23-6.92,4.81-3.08-3.67-2.25-7.58a8.12,8.12,0,0,1,7.67-6.34C281.37,171.17,281.92,174,281.92,174Z" transform="translate(-43.74 -13.44)" fill="url(#linear-gradient-35)"/><path id="_Path_176" data-name="&lt;Path&gt;" d="M279.09,170.55S279,175,283,176.29s6.8,1.83,7.14,3.38,2-4.18.39-7.85a7.58,7.58,0,0,0-8.13-4.72C279,167.67,279.09,170.55,279.09,170.55Z" transform="translate(-43.74 -13.44)" fill="url(#linear-gradient-36)"/><path id="_Path_177" data-name="&lt;Path&gt;" d="M275.89,170.71a3,3,0,0,1-2.39,2.72c-2.28.41-3.88.54-4.12,1.32s-1-2.27,0-4.07a4.18,4.18,0,0,1,4.72-2C276.05,169.23,275.89,170.71,275.89,170.71Z" transform="translate(-43.74 -13.44)" fill="url(#linear-gradient-37)"/><path id="_Path_178" data-name="&lt;Path&gt;" d="M282.19,167.47a2.41,2.41,0,0,0,2.83.32c1.5-.94,2.47-1.69,3-1.37s-.7-1.78-2.24-2.29a3.19,3.19,0,0,0-3.71,1.32A1.5,1.5,0,0,0,282.19,167.47Z" transform="translate(-43.74 -13.44)" fill="url(#linear-gradient-38)"/><path id="_Path_179" data-name="&lt;Path&gt;" d="M279.26,169.44c-.5,2,1.2,4.58,3.62,5.06s6,1.06,6,1.06.19-5.33-1.75-7c-1.17-1-3.81-2.59-5.59-2.09S279.26,169.44,279.26,169.44Z" transform="translate(-43.74 -13.44)" fill="url(#linear-gradient-39)"/><path id="_Path_180" data-name="&lt;Path&gt;" d="M277,163c-3.37.38-6.41,3.89-5.62,7.23s2.14,8.16,2.14,8.16,6.09-3.79,8.22-5,3.21-7,1.3-9S277,163,277,163Z" transform="translate(-43.74 -13.44)" fill="url(#linear-gradient-40)"/><path id="_Path_181" data-name="&lt;Path&gt;" d="M279.46,167.08a5,5,0,0,1-5.91-1.42c-2.39-3.06-3.84-5.34-5.18-5.09s2.61-3.2,6.06-3.12a7,7,0,0,1,6.59,5.49C281.77,166.16,279.46,167.08,279.46,167.08Z" transform="translate(-43.74 -13.44)" fill="url(#linear-gradient-41)"/><path id="_Path_182" data-name="&lt;Path&gt;" d="M280.21,164.76a3.84,3.84,0,0,0,4.54.52c2.41-1.51,4-2.71,4.87-2.2s-1.12-2.86-3.6-3.68a5.13,5.13,0,0,0-6,2.12A2.4,2.4,0,0,0,280.21,164.76Z" transform="translate(-43.74 -13.44)" fill="url(#linear-gradient-42)"/><path id="_Path_183" data-name="&lt;Path&gt;" d="M302.19,204.13l-5.17,3a2.92,2.92,0,0,1-2.63-.11l-8.77-4.89c-.78-.45-.86-1.12-.19-1.51l5.17-3a2.92,2.92,0,0,1,2.63.11l8.78,4.88C302.78,203.06,302.87,203.74,302.19,204.13Z" transform="translate(-43.74 -13.44)" fill="url(#linear-gradient-43)"/><path id="_Path_184" data-name="&lt;Path&gt;" d="M302.19,203.3l-5.17,3a2.92,2.92,0,0,1-2.63-.11l-8.77-4.88c-.78-.45-.86-1.13-.19-1.52l5.17-3a2.92,2.92,0,0,1,2.63.11l8.78,4.88C302.78,202.23,302.87,202.91,302.19,203.3Z" transform="translate(-43.74 -13.44)" fill="#f7eae8"/><path id="_Path_185" data-name="&lt;Path&gt;" d="M300.82,203l-4.33,2.5a2.4,2.4,0,0,1-2.19-.09L287,201.34c-.65-.38-.72-1-.15-1.27l4.32-2.5a2.42,2.42,0,0,1,2.2.09l7.33,4.08C301.31,202.12,301.38,202.69,300.82,203Z" transform="translate(-43.74 -13.44)" fill="#2f324c"/><path id="_Path_186" data-name="&lt;Path&gt;" d="M282,231.24l-1.72-1h0a2.48,2.48,0,0,0-1.42,0,99.08,99.08,0,0,0-16.63,7.6,131.36,131.36,0,0,0-16.63,11.17c-1.06.93-2,2.08-2,3.26v9.14a1.25,1.25,0,0,0,.53,1.14h0l0,0h0l1.61,1a19.91,19.91,0,0,0,3.42-3.18l29.64-16.72a4.2,4.2,0,0,0,2-3.26v-7.52Z" transform="translate(-43.74 -13.44)" fill="#f0f4e4"/><path id="_Path_187" data-name="&lt;Path&gt;" d="M280.46,231.24a98.94,98.94,0,0,0-16.64,7.6A131.36,131.36,0,0,0,247.19,250a4.9,4.9,0,0,0-2,3.26v9.14c0,1.18.9,1.63,2,1l33.27-18.76a4.23,4.23,0,0,0,2-3.27v-9.13C282.46,231.07,281.6,231,280.46,231.24Z" transform="translate(-43.74 -13.44)" fill="#818e99"/><g id="_Group_40" data-name="&lt;Group&gt;"><g id="_Group_41" data-name="&lt;Group&gt;"><path id="_Path_188" data-name="&lt;Path&gt;" d="M341.25,273.16l4.8-8.46-.88-.39a3.21,3.21,0,0,0-2.42-2.32c-2.15-.37-4.41,1.85-5,4.86-.42,2.24.23,4.22,1.49,5.12h0l.08,0,.22.14C340.43,272.67,339.14,271.9,341.25,273.16Z" transform="translate(-43.74 -13.44)" fill="#475054"/><path id="_Path_189" data-name="&lt;Path&gt;" d="M346.88,268.86c-.65,2.77-2.75,4.78-4.75,4.56s-3.31-2.7-2.76-5.61,2.83-5.23,5-4.86S347.55,266,346.88,268.86Z" transform="translate(-43.74 -13.44)" fill="#2d363f"/><path id="_Path_190" data-name="&lt;Path&gt;" d="M345.66,268.79c-.41,1.83-1.76,3.16-3,3s-2-1.78-1.66-3.66,1.79-3.35,3.11-3.14S346.09,266.92,345.66,268.79Z" transform="translate(-43.74 -13.44)" fill="#637e96"/><path id="_Path_191" data-name="&lt;Path&gt;" d="M344.43,268.58c-.19.86-.83,1.49-1.42,1.42s-1-.84-.79-1.73.85-1.58,1.47-1.48S344.64,267.7,344.43,268.58Z" transform="translate(-43.74 -13.44)" fill="#475054"/><path id="_Path_192" data-name="&lt;Path&gt;" d="M343.37,264.09v3s0,.46-.26.5-.38.23-.3.8,1.31.85,1.67-.05a3.64,3.64,0,0,0,.24-1.25V263.3Z" transform="translate(-43.74 -13.44)" fill="#adbcc0"/></g><g id="_Group_42" data-name="&lt;Group&gt;"><path id="_Path_193" data-name="&lt;Path&gt;" d="M345.81,259.49a11.4,11.4,0,0,0-1.43-2.18H343a17.2,17.2,0,0,0-.23-2.5l-4.43,2.68s.38,3.1-.54,4.05l-1.18.7v1.84l4.89,1.05,3.64-1.93S346,260.15,345.81,259.49Z" transform="translate(-43.74 -13.44)" fill="#cfe3e5"/><path id="_Path_194" data-name="&lt;Path&gt;" d="M342.72,264.29c.92-1,.54-4.05.54-4.05l4.43-2.68s.89,5.05-.84,6.2-5.31,3.16-5.31,3.16v-1.79Z" transform="translate(-43.74 -13.44)" fill="#4a6570"/><polygon id="_Path_195" data-name="&lt;Path&gt;" points="292.91 250.63 297.8 253.47 297.8 251.69 292.91 248.79 292.91 250.63" fill="#8eacbc"/></g></g><g id="_Group_43" data-name="&lt;Group&gt;"><g id="_Group_44" data-name="&lt;Group&gt;"><path id="_Path_196" data-name="&lt;Path&gt;" d="M243.17,292.4l4.8-8.47-.88-.38a3.23,3.23,0,0,0-2.42-2.33c-2.15-.37-4.41,1.85-5,4.86-.42,2.24.23,4.22,1.49,5.12h0l.09.05a1.64,1.64,0,0,0,.22.14Z" transform="translate(-43.74 -13.44)" fill="#475054"/><path id="_Path_197" data-name="&lt;Path&gt;" d="M248.8,288.09c-.65,2.77-2.75,4.78-4.75,4.56s-3.31-2.7-2.76-5.61,2.83-5.23,5-4.86S249.47,285.22,248.8,288.09Z" transform="translate(-43.74 -13.44)" fill="#2d363f"/><path id="_Path_198" data-name="&lt;Path&gt;" d="M247.58,288c-.42,1.83-1.76,3.16-3,3s-2-1.78-1.67-3.66,1.79-3.35,3.12-3.14S248,286.15,247.58,288Z" transform="translate(-43.74 -13.44)" fill="#637e96"/><path id="_Path_199" data-name="&lt;Path&gt;" d="M246.35,287.81c-.19.87-.83,1.5-1.43,1.42s-1-.84-.78-1.73.84-1.58,1.47-1.48S246.55,286.93,246.35,287.81Z" transform="translate(-43.74 -13.44)" fill="#475054"/><path id="_Path_200" data-name="&lt;Path&gt;" d="M245.29,283.32v3s0,.46-.26.5-.38.23-.31.8a.93.93,0,0,0,1.68-.05,3.49,3.49,0,0,0,.23-1.25l0-3.78Z" transform="translate(-43.74 -13.44)" fill="#adbcc0"/></g><g id="_Group_45" data-name="&lt;Group&gt;"><path id="_Path_201" data-name="&lt;Path&gt;" d="M247.73,278.72a11.24,11.24,0,0,0-1.43-2.17H245a19.31,19.31,0,0,0-.23-2.51l-4.44,2.68s.39,3.1-.53,4l-1.18.7v1.84l4.89,1.05,3.64-1.93S247.94,279.38,247.73,278.72Z" transform="translate(-43.74 -13.44)" fill="#aec4d3"/><path id="_Path_202" data-name="&lt;Path&gt;" d="M244.64,283.52c.92-.95.53-4,.53-4l4.44-2.68s.89,5-.84,6.21-5.31,3.15-5.31,3.15v-1.79Z" transform="translate(-43.74 -13.44)" fill="#4a6570"/><polygon id="_Path_203" data-name="&lt;Path&gt;" points="194.83 269.87 199.72 272.7 199.72 270.92 194.83 268.02 194.83 269.87" fill="#80a3b2"/></g></g><g id="_Group_46" data-name="&lt;Group&gt;"><g id="_Group_47" data-name="&lt;Group&gt;"><path id="_Path_204" data-name="&lt;Path&gt;" d="M273.3,309.7l4.8-8.46-.88-.39a3.23,3.23,0,0,0-2.42-2.32c-2.15-.37-4.41,1.85-5,4.86-.42,2.24.23,4.22,1.49,5.12h0l.09.05a1.64,1.64,0,0,0,.22.14Z" transform="translate(-43.74 -13.44)" fill="#475054"/><path id="_Path_205" data-name="&lt;Path&gt;" d="M278.93,305.4c-.65,2.77-2.75,4.78-4.75,4.56s-3.31-2.7-2.76-5.61,2.83-5.23,5-4.86S279.6,302.53,278.93,305.4Z" transform="translate(-43.74 -13.44)" fill="#2d363f"/><path id="_Path_206" data-name="&lt;Path&gt;" d="M277.71,305.33c-.42,1.83-1.76,3.16-3,3s-2-1.78-1.67-3.66,1.79-3.35,3.12-3.14S278.14,303.46,277.71,305.33Z" transform="translate(-43.74 -13.44)" fill="#637e96"/><path id="_Path_207" data-name="&lt;Path&gt;" d="M276.48,305.12c-.19.86-.83,1.5-1.43,1.42s-1-.84-.78-1.73.84-1.58,1.47-1.48S276.68,304.24,276.48,305.12Z" transform="translate(-43.74 -13.44)" fill="#475054"/><path id="_Path_208" data-name="&lt;Path&gt;" d="M275.42,300.63v3s0,.46-.26.5-.38.23-.31.8a.93.93,0,0,0,1.68-.05,3.49,3.49,0,0,0,.23-1.25l0-3.78Z" transform="translate(-43.74 -13.44)" fill="#adbcc0"/></g><g id="_Group_48" data-name="&lt;Group&gt;"><path id="_Path_209" data-name="&lt;Path&gt;" d="M277.86,296a11.4,11.4,0,0,0-1.43-2.18h-1.35a19,19,0,0,0-.23-2.5L270.41,294s.39,3.1-.53,4.05l-1.18.7v1.84l4.89,1.05,3.64-1.93S278.07,296.69,277.86,296Z" transform="translate(-43.74 -13.44)" fill="#aec4d3"/><path id="_Path_210" data-name="&lt;Path&gt;" d="M274.77,300.83c.92-.95.53-4.05.53-4.05l4.44-2.68s.89,5-.84,6.2-5.31,3.16-5.31,3.16v-1.79Z" transform="translate(-43.74 -13.44)" fill="#4a6570"/><polygon id="_Path_211" data-name="&lt;Path&gt;" points="224.96 287.17 229.85 290.01 229.85 288.23 224.96 285.33 224.96 287.17" fill="#80a3b2"/></g></g><g id="_Group_49" data-name="&lt;Group&gt;"><path id="_Path_212" data-name="&lt;Path&gt;" d="M297.18,242.26h-1.92V226.69a12.8,12.8,0,0,1,2.1-7.26c2.82-3.85,18.12-23.2,18.77-24,.34-.44,2.14-2.64,4-2,1.46.5,2.14,2.45,2.14,6.14v12.08h-1.92V199.53c0-3.93-.83-4.32-.84-4.32-.29-.1-1.25.61-1.84,1.38-.17.21-15.94,20.15-18.74,24a11,11,0,0,0-1.73,6.08Z" transform="translate(-43.74 -13.44)" fill="#f0f4e4"/></g><path id="_Path_213" data-name="&lt;Path&gt;" d="M355.21,225.26a144,144,0,0,0-18.29-12.67,100.62,100.62,0,0,0-18.29-8.52,1.74,1.74,0,0,0-1.85,0h0l.32-.21-.66.43-1.17.77,1.17,5.73v14.64a4.81,4.81,0,0,0,2.19,3.76l31.78,18.42,4.63,4.08,1.72-1.13h0l.08,0h0a1.55,1.55,0,0,0,.56-1.33V229C357.4,227.65,356.28,226.2,355.21,225.26Z" transform="translate(-43.74 -13.44)" fill="#f4f7eb"/><path id="_Path_214" data-name="&lt;Path&gt;" d="M353.47,226.42a145.24,145.24,0,0,0-18.29-12.67,100.74,100.74,0,0,0-18.28-8.52c-1.38-.61-2.2-.16-2.2,1.21v20.19a4.85,4.85,0,0,0,2.2,3.76l36.57,21.19c1.21.7,2.2.16,2.2-1.21V230.18C355.67,228.81,354.58,227.4,353.47,226.42Z" transform="translate(-43.74 -13.44)" fill="#818e99"/><polygon id="_Path_215" data-name="&lt;Path&gt;" points="232.39 287.5 194.67 265.17 194.67 259.52 232.39 281.35 232.39 287.5" fill="#96a5a8"/><path id="_Path_216" data-name="&lt;Path&gt;" d="M357.1,238.85h0v-5.28l-3.7.17-.32,1.89-4-2.4L329,266l4.12,2.36,23.6-28.33A1.66,1.66,0,0,0,357.1,238.85Z" transform="translate(-43.74 -13.44)" fill="#96aaa9"/><path id="_Path_217" data-name="&lt;Path&gt;" d="M333.13,263l23.6-28.27a1.67,1.67,0,0,0-.42-2.49l-7.19-4.35L329,260.66Z" transform="translate(-43.74 -13.44)" fill="#f0f4e4"/><polygon id="_Path_218" data-name="&lt;Path&gt;" points="233.31 280.96 289.39 249.51 281.37 244.55 233.31 277.4 233.31 280.96" fill="#cfd3c2"/><path id="_Path_219" data-name="&lt;Path&gt;" d="M350.75,232.33h0l-2.54-7h-6.87l-15.74-8.45a5.93,5.93,0,0,0-7.38,1.45l-13.7,16.49,25.91,26.62,2.94-3.7,16.32-19.92A5.88,5.88,0,0,0,350.75,232.33Z" transform="translate(-43.74 -13.44)" fill="#46646d"/><path id="_Path_220" data-name="&lt;Path&gt;" d="M300.16,231l15.77-19.16a5.93,5.93,0,0,1,7.38-1.45l22.3,12a5.92,5.92,0,0,1,1.79,9L329,253.93Z" transform="translate(-43.74 -13.44)" fill="#bcceae"/><path id="_Path_221" data-name="&lt;Path&gt;" d="M242.15,259.86l50.64-29.14s5.93-3.71,11.22-.67,18.27,10.26,18.27,10.26,6.73,3.52,6.73,7.21v6.41L274,285.5Z" transform="translate(-43.74 -13.44)" fill="#21c190"/><polygon id="_Path_222" data-name="&lt;Path&gt;" points="230.3 272.06 230.3 281.35 285.27 250.26 285.27 240.49 230.3 272.06" fill="#46646d"/><polygon id="_Path_223" data-name="&lt;Path&gt;" points="285.27 237.76 285.27 247.22 286.71 248.03 286.71 238.73 285.27 237.76" fill="#2e4a51"/><path id="_Path_224" data-name="&lt;Path&gt;" d="M322.66,230c-11.42-6.46-15.24-8.72-13.33-13.26s3.36-7.28,7.18-10.39,10.71-.24,18.32,3.12,16.43,9.27,17.12,12.94-3.42,11.69-7.73,13.5S332.42,235.47,322.66,230Z" transform="translate(-43.74 -13.44)" fill="#fff"/><polygon id="_Path_225" data-name="&lt;Path&gt;" points="289.39 249.51 289.39 254.95 232.39 287.5 232.39 281.35 289.39 249.51" fill="#818e99"/><path id="_Path_226" data-name="&lt;Path&gt;" d="M342.11,234.51a15,15,0,0,1,1.47-7.74,12.84,12.84,0,0,1,5.42-4.94.78.78,0,0,1,1.13.58,10.15,10.15,0,0,1-1.69,6.68C345.53,233.77,342.11,234.51,342.11,234.51Z" transform="translate(-43.74 -13.44)" fill="#818e99"/><path id="_Path_227" data-name="&lt;Path&gt;" d="M358.36,219.74c0-3.7-.68-5.65-2.14-6.15-1.84-.62-3.64,1.59-4,2-.65.83-15.95,20.17-18.77,24a12.82,12.82,0,0,0-2.1,7.26v15.58h0a.91.91,0,0,0,.91.84h.09a.91.91,0,0,0,.91-.84h0V246.85a11,11,0,0,1,1.73-6.08c2.8-3.82,18.57-23.76,18.74-24,.59-.77,1.55-1.48,1.84-1.37,0,0,.84.39.84,4.32v12.07h0a.91.91,0,0,0,.91.89h.09a.92.92,0,0,0,.91-.89h0Z" transform="translate(-43.74 -13.44)" fill="#f0f4e4"/><path id="_Path_228" data-name="&lt;Path&gt;" d="M265.85,293.36h-.12a1,1,0,0,0-.46.11h0l-4.94,3-.15.11a6.94,6.94,0,0,1-2.71.81,10.37,10.37,0,0,1-4.85-.73l-11.92-7.06a43.62,43.62,0,0,1-4.9-3.22,10.32,10.32,0,0,1,2,.54c3.4,1.53,4.89.92,5.33.64l5.14-3h0a1,1,0,0,0,.49-.84v0a1,1,0,0,0-1-1h-.12a.92.92,0,0,0-.43.11v0l-5.16,3.05h0c-.11,0-1.05.31-3.44-.76,0,0-4.67-1.83-5.62,0-.63,1.21.22,2.52,6.62,6.3l12,7.09.11.06a13.35,13.35,0,0,0,4.75,1,10.38,10.38,0,0,0,4.94-1.33l4.88-2.92h0a1,1,0,0,0,.51-.86v0A1,1,0,0,0,265.85,293.36Z" transform="translate(-43.74 -13.44)" fill="#818e99"/><path id="_Path_229" data-name="&lt;Path&gt;" d="M243.63,286.05h0a1,1,0,0,0-.45-.12h-.12a1,1,0,0,0-1,1v0a1,1,0,0,0,.52.86h0l17.74,10.37,1-1.77Z" transform="translate(-43.74 -13.44)" fill="#818e99"/><polygon id="_Path_230" data-name="&lt;Path&gt;" points="289.39 254.95 311.93 242.09 304.04 237.33 302.69 238.95 307.57 241.98 293.21 250.3 289.39 254.95" fill="#9db2c4"/><polygon id="_Path_231" data-name="&lt;Path&gt;" points="237.25 284.67 237.25 286.96 311.93 244.55 311.93 242.09 237.25 284.67" fill="#4a6570"/><polygon id="_Path_232" data-name="&lt;Path&gt;" points="237.25 286.96 235.32 285.82 237.25 284.67 237.25 286.96" fill="#bbbfaf"/><polygon id="_Path_233" data-name="&lt;Path&gt;" points="301.24 240.72 305.33 243.28 307.57 241.98 302.69 238.95 301.24 240.72" fill="#4a6570"/><polygon id="_Path_234" data-name="&lt;Path&gt;" points="300.84 245.88 298.26 244.3 300.44 241.67 304.2 243.94 300.84 245.88" fill="#9db2c4"/><polygon id="_Path_235" data-name="&lt;Path&gt;" points="296.73 246.14 298.26 244.3 300.84 245.88 298.51 247.23 296.73 246.14" fill="#4a6570"/><path id="_Path_236" data-name="&lt;Path&gt;" d="M329,253.82v-6.41c0-3.69-6.73-7.21-6.73-7.21S309.3,233,304,229.94s-11.22.67-11.22.67l-2.67,1.54c1.86-.9,6.27-2.5,10.3-.18,5.29,3,18.27,10.25,18.27,10.25s6.73,3.53,6.73,7.22v6.41Z" transform="translate(-43.74 -13.44)" fill="#bcf7c5"/><path id="_Path_237" data-name="&lt;Path&gt;" d="M272.06,284l2,1.58L329,254v-6.41a4.29,4.29,0,0,0-.81-2.33l-51.15,29Z" transform="translate(-43.74 -13.44)" fill="#9db7c6" style="mix-blend-mode:multiply"/><path id="_Path_238" data-name="&lt;Path&gt;" d="M274.85,270.46a145,145,0,0,0-18.28-12.68,100.07,100.07,0,0,0-18.29-8.51,1.74,1.74,0,0,0-1.85,0h0l.31-.2-.66.43-1.16.77,1.17,5.73v14.64a4.82,4.82,0,0,0,2.19,3.76l31.78,18.41,4.62,4.09,1.72-1.13h0l.08,0h0a1.5,1.5,0,0,0,.57-1.32V274.22C277.05,272.85,275.92,271.4,274.85,270.46Z" transform="translate(-43.74 -13.44)" fill="#f0f4e4"/><path id="_Path_239" data-name="&lt;Path&gt;" d="M273.12,271.62a144.67,144.67,0,0,0-18.29-12.68,101,101,0,0,0-18.28-8.51c-1.39-.61-2.2-.16-2.2,1.21v20.18a4.79,4.79,0,0,0,2.2,3.76l36.57,21.2c1.21.7,2.19.16,2.19-1.22V275.38C275.31,274,274.22,272.6,273.12,271.62Z" transform="translate(-43.74 -13.44)" fill="#bbceaf"/><path id="_Path_240" data-name="&lt;Path&gt;" d="M320.39,253.46l-1.72-1h0a2.38,2.38,0,0,0-1.42,0,99.08,99.08,0,0,0-16.63,7.6A132.31,132.31,0,0,0,284,271.29a4.89,4.89,0,0,0-2,3.27v9.13a1.24,1.24,0,0,0,.53,1.14h0l.05,0h0l1.61,1a19.91,19.91,0,0,0,3.42-3.18l29.64-16.72a4.19,4.19,0,0,0,2-3.26v-7.52Z" transform="translate(-43.74 -13.44)" fill="#f0f4e4"/><path id="_Path_241" data-name="&lt;Path&gt;" d="M318.81,253.46a99.08,99.08,0,0,0-16.63,7.6,131.36,131.36,0,0,0-16.63,11.17,4.92,4.92,0,0,0-2,3.26v9.14c0,1.18.9,1.63,2,1l33.26-18.77a4.17,4.17,0,0,0,2-3.26v-9.14C320.81,253.29,320,253.18,318.81,253.46Z" transform="translate(-43.74 -13.44)" fill="#9db2c4"/><path id="_Path_242" data-name="&lt;Path&gt;" d="M316.63,274.82v-6.2l-.09-3.76c0-1.54-.44-2.5-1.32-2.91-1.24-.59-2.38.21-3.06.55-1.2.65-15.21,8.27-18.41,10.31-3.38,2.14-3.1,4.17-3.09,5.31v10.31a.22.22,0,0,0,0,.08v0a1,1,0,1,0,1.92,0h0V278a4,4,0,0,1,2.2-3.59c3.27-2,18.21-10.19,18.36-10.28l.13-.08c.45-.27.92-.5,1.15-.35s.17.25.2,1.19l.09,3.73v6.18h0v0a1,1,0,0,0,1.92,0v0Z" transform="translate(-43.74 -13.44)" fill="#f0f4e4"/><path id="_Path_243" data-name="&lt;Path&gt;" d="M323,254.65,321.9,254l-.07,0h0a.46.46,0,0,0-.4,0l-2,1.15a1.65,1.65,0,0,0-.68,1.29l0,5.59a.58.58,0,0,0,.22.54l1.18.68.48-1.4.81-.46a1.62,1.62,0,0,0,.68-1.29v-2.7Z" transform="translate(-43.74 -13.44)" fill="#4a6570"/><path id="_Path_244" data-name="&lt;Path&gt;" d="M322.55,262.08l-2,1.15c-.37.21-.67,0-.67-.51l0-5.59a1.59,1.59,0,0,1,.68-1.29l2-1.15c.37-.22.67,0,.67.51l0,5.59A1.66,1.66,0,0,1,322.55,262.08Z" transform="translate(-43.74 -13.44)" fill="#f0f4e4"/><path id="_Path_245" data-name="&lt;Path&gt;" d="M322.4,258.11l-1.69.94c-.11.07-.21,0-.21-.15v-1.69a.51.51,0,0,1,.21-.4l1.69-.94c.12-.06.21,0,.21.16v1.69A.47.47,0,0,1,322.4,258.11Z" transform="translate(-43.74 -13.44)" fill="#d32c16"/><path id="_Path_246" data-name="&lt;Path&gt;" d="M322.4,261.1l-1.69.95c-.11.06-.21,0-.21-.16V260.2a.49.49,0,0,1,.21-.39l1.69-.95c.12-.06.21,0,.21.16v1.69A.47.47,0,0,1,322.4,261.1Z" transform="translate(-43.74 -13.44)" fill="#185bd1"/><g id="_Group_50" data-name="&lt;Group&gt;"><path id="_Path_247" data-name="&lt;Path&gt;" d="M322.53,267.29a1.27,1.27,0,0,1-.74-.21,1.5,1.5,0,0,1-.55-1.35l0-3.49h.64l0,3.52s-.05.59.26.79.76.24,2.15-.54l5.28-3,.32.56s-1.88,1.05-5.28,3A4.55,4.55,0,0,1,322.53,267.29Z" transform="translate(-43.74 -13.44)" fill="#fff"/></g><g id="_Group_51" data-name="&lt;Group&gt;"><g id="_Group_52" data-name="&lt;Group&gt;"><path id="_Path_248" data-name="&lt;Path&gt;" d="M261.52,313.43l-2.38-4.34.44-.19a1.62,1.62,0,0,1,1.2-1.2c1.06-.18,2.18.95,2.46,2.49a2.66,2.66,0,0,1-.73,2.62h0l0,0-.11.07Z" transform="translate(-43.74 -13.44)" fill="#475054"/><path id="_Path_249" data-name="&lt;Path&gt;" d="M258.73,311.22c.32,1.42,1.37,2.45,2.36,2.34s1.63-1.38,1.36-2.87-1.4-2.68-2.47-2.49S258.4,309.75,258.73,311.22Z" transform="translate(-43.74 -13.44)" fill="#2d363f"/><path id="_Path_250" data-name="&lt;Path&gt;" d="M259.34,311.18c.2.94.87,1.62,1.49,1.55s1-.91.83-1.88-.89-1.71-1.55-1.6S259.13,310.23,259.34,311.18Z" transform="translate(-43.74 -13.44)" fill="#637e96"/><path id="_Path_251" data-name="&lt;Path&gt;" d="M259.94,311.08c.1.44.42.76.71.73s.48-.43.39-.89-.42-.81-.73-.76S259.84,310.63,259.94,311.08Z" transform="translate(-43.74 -13.44)" fill="#475054"/><path id="_Path_252" data-name="&lt;Path&gt;" d="M260.47,308.78v1.53s0,.23.13.25.19.12.15.42-.65.43-.83,0a2.05,2.05,0,0,1-.12-.64v-1.94Z" transform="translate(-43.74 -13.44)" fill="#adbcc0"/></g><g id="_Group_53" data-name="&lt;Group&gt;"><path id="_Path_253" data-name="&lt;Path&gt;" d="M259.26,306.42a6.16,6.16,0,0,1,.71-1.11h.67a9.62,9.62,0,0,1,.11-1.28l2.2,1.37s-.19,1.59.26,2.07l.59.36v.94l-2.42.54-1.81-1A8.05,8.05,0,0,1,259.26,306.42Z" transform="translate(-43.74 -13.44)" fill="#8d99a0"/><path id="_Path_254" data-name="&lt;Path&gt;" d="M260.79,308.88c-.45-.48-.26-2.07-.26-2.07l-2.2-1.37s-.44,2.58.42,3.17,2.63,1.62,2.63,1.62v-.92Z" transform="translate(-43.74 -13.44)" fill="#6c7a82"/><polygon id="_Path_255" data-name="&lt;Path&gt;" points="220.06 295.33 217.64 296.78 217.64 295.87 220.06 294.39 220.06 295.33" fill="#7a868c"/></g></g><polygon id="_Path_256" data-name="&lt;Path&gt;" points="195.76 303.11 214.49 291.79 214.49 261.07 194.59 270.31 195.76 303.11" fill="#6b878e"/><path id="_Path_257" data-name="&lt;Path&gt;" d="M220.53,279.55a5.43,5.43,0,0,1,3-5c3.34-1.93,17.26-9.78,17.26-9.78l17.47,9.78-16.65,9.76s-2.08,1.22-2.08,6-9.9-.41-9.9-.41Z" transform="translate(-43.74 -13.44)" fill="#dce2d3"/><polygon id="_Path_258" data-name="&lt;Path&gt;" points="176.79 266.1 176.79 292.09 195.76 303.11 195.76 276.86 176.79 266.1" fill="#aeb7a1"/><g id="_Group_54" data-name="&lt;Group&gt;"><g id="_Group_55" data-name="&lt;Group&gt;"><path id="_Path_259" data-name="&lt;Path&gt;" d="M218.88,314.64l-2.38-4.33.43-.2a1.63,1.63,0,0,1,1.2-1.19c1.07-.19,2.19.95,2.47,2.49a2.66,2.66,0,0,1-.74,2.62h0l0,0-.11.07Z" transform="translate(-43.74 -13.44)" fill="#475054"/><path id="_Path_260" data-name="&lt;Path&gt;" d="M216.09,312.44c.32,1.42,1.36,2.45,2.35,2.34s1.64-1.39,1.36-2.88-1.4-2.67-2.46-2.49S215.75,311,216.09,312.44Z" transform="translate(-43.74 -13.44)" fill="#2d363f"/><path id="_Path_261" data-name="&lt;Path&gt;" d="M216.69,312.4c.21.94.87,1.62,1.5,1.54s1-.91.82-1.87-.88-1.71-1.54-1.61S216.48,311.45,216.69,312.4Z" transform="translate(-43.74 -13.44)" fill="#637e96"/><path id="_Path_262" data-name="&lt;Path&gt;" d="M217.3,312.3c.1.44.41.76.71.73s.47-.43.39-.89-.42-.81-.73-.76S217.2,311.84,217.3,312.3Z" transform="translate(-43.74 -13.44)" fill="#475054"/><path id="_Path_263" data-name="&lt;Path&gt;" d="M217.83,310v1.53s0,.23.12.25.19.12.16.42a.45.45,0,0,1-.83,0,1.76,1.76,0,0,1-.12-.64v-1.94Z" transform="translate(-43.74 -13.44)" fill="#adbcc0"/></g><g id="_Group_56" data-name="&lt;Group&gt;"><path id="_Path_264" data-name="&lt;Path&gt;" d="M216.62,307.64a5.65,5.65,0,0,1,.71-1.11H218a9.41,9.41,0,0,1,.11-1.28l2.19,1.37s-.19,1.59.27,2.07l.58.36V310l-2.42.54-1.8-1A7.48,7.48,0,0,1,216.62,307.64Z" transform="translate(-43.74 -13.44)" fill="#8d99a0"/><path id="_Path_265" data-name="&lt;Path&gt;" d="M218.15,310.1c-.46-.48-.27-2.07-.27-2.07l-2.19-1.37s-.45,2.58.41,3.17,2.63,1.62,2.63,1.62v-.92Z" transform="translate(-43.74 -13.44)" fill="#6c7a82"/><polygon id="_Path_266" data-name="&lt;Path&gt;" points="177.42 296.55 175 298 175 297.09 177.42 295.61 177.42 296.55" fill="#7a868c"/></g></g><g id="_Group_57" data-name="&lt;Group&gt;"><g id="_Group_58" data-name="&lt;Group&gt;"><path id="_Path_267" data-name="&lt;Path&gt;" d="M239,326.83l-2.38-4.34.44-.19a1.61,1.61,0,0,1,1.2-1.19c1.06-.19,2.18.94,2.46,2.49a2.66,2.66,0,0,1-.73,2.62h0l0,0-.12.07Z" transform="translate(-43.74 -13.44)" fill="#475054"/><path id="_Path_268" data-name="&lt;Path&gt;" d="M236.19,324.62c.32,1.42,1.36,2.45,2.36,2.34s1.63-1.38,1.36-2.87-1.4-2.68-2.47-2.49S235.86,323.15,236.19,324.62Z" transform="translate(-43.74 -13.44)" fill="#2d363f"/><path id="_Path_269" data-name="&lt;Path&gt;" d="M236.8,324.59c.2.93.87,1.62,1.49,1.54s1-.91.83-1.88-.89-1.71-1.55-1.6S236.58,323.63,236.8,324.59Z" transform="translate(-43.74 -13.44)" fill="#637e96"/><path id="_Path_270" data-name="&lt;Path&gt;" d="M237.4,324.48c.1.44.41.77.71.73s.48-.43.39-.89-.42-.81-.73-.76S237.3,324,237.4,324.48Z" transform="translate(-43.74 -13.44)" fill="#475054"/><path id="_Path_271" data-name="&lt;Path&gt;" d="M237.93,322.18v1.53s0,.24.13.26.19.12.15.41-.65.43-.83,0a2.05,2.05,0,0,1-.12-.64v-1.93Z" transform="translate(-43.74 -13.44)" fill="#adbcc0"/></g><g id="_Group_59" data-name="&lt;Group&gt;"><path id="_Path_272" data-name="&lt;Path&gt;" d="M236.72,319.83a5.8,5.8,0,0,1,.71-1.12h.67a9.62,9.62,0,0,1,.11-1.28l2.2,1.37s-.19,1.59.26,2.08l.59.36v.94l-2.42.54-1.81-1A8,8,0,0,1,236.72,319.83Z" transform="translate(-43.74 -13.44)" fill="#8d99a0"/><path id="_Path_273" data-name="&lt;Path&gt;" d="M238.25,322.29c-.45-.49-.26-2.08-.26-2.08l-2.2-1.37s-.44,2.58.42,3.18,2.63,1.61,2.63,1.61v-.91Z" transform="translate(-43.74 -13.44)" fill="#6c7a82"/><polygon id="_Path_274" data-name="&lt;Path&gt;" points="197.52 308.73 195.1 310.19 195.1 309.27 197.52 307.79 197.52 308.73" fill="#7a868c"/></g></g><polygon id="_Path_275" data-name="&lt;Path&gt;" points="176.79 289.57 171.54 292.6 195.76 307.07 220.13 292.4 214.49 288.95 214.49 291.79 195.76 303.11 176.79 292.09 176.79 289.57" fill="#dce2d3"/><polygon id="_Path_276" data-name="&lt;Path&gt;" points="195.76 307.07 195.76 309.37 220.13 294.73 220.13 292.4 195.76 307.07" fill="#6b878e"/><polygon id="_Path_277" data-name="&lt;Path&gt;" points="171.54 292.6 171.54 294.73 195.76 309.37 195.76 307.07 171.54 292.6" fill="#aeb7a1"/><path id="_Path_278" data-name="&lt;Path&gt;" d="M236,303.75l-9-5.17a2.45,2.45,0,0,1-1-1.95v-8c0-.74.45-1.09,1-.77l9,5.18a2.43,2.43,0,0,1,1,1.94v8C237,303.73,236.55,304.08,236,303.75Z" transform="translate(-43.74 -13.44)" fill="#353d3d"/><path id="_Path_279" data-name="&lt;Path&gt;" d="M224.05,297h0a2.44,2.44,0,0,1-1-2v-8c0-.74.45-1.09,1-.77h0a2.49,2.49,0,0,1,1,1.95v8C225.06,297,224.61,297.3,224.05,297Z" transform="translate(-43.74 -13.44)" fill="#353d3d"/><path id="_Path_280" data-name="&lt;Path&gt;" d="M228.38,291.85l-1.18-.68a.31.31,0,0,1-.14-.25v-1.06c0-.1.06-.14.14-.1l1.18.68a.33.33,0,0,1,.13.26v1.05C228.51,291.85,228.45,291.89,228.38,291.85Z" transform="translate(-43.74 -13.44)" fill="#ff3222"/><path id="_Path_281" data-name="&lt;Path&gt;" d="M230.6,293.11l-1.18-.68a.31.31,0,0,1-.13-.25v-1.06c0-.1.06-.14.13-.1l1.18.68a.31.31,0,0,1,.14.26V293C230.74,293.11,230.68,293.15,230.6,293.11Z" transform="translate(-43.74 -13.44)" fill="#ffc8c7"/><path id="_Path_282" data-name="&lt;Path&gt;" d="M232.81,294.31l-1.18-.68a.29.29,0,0,1-.14-.25v-1.06c0-.1.06-.14.13-.1l1.18.68a.31.31,0,0,1,.14.26v1C232.94,294.31,232.88,294.36,232.81,294.31Z" transform="translate(-43.74 -13.44)" fill="#6565e5"/><path id="_Path_283" data-name="&lt;Path&gt;" d="M235,295.57l-1.18-.68a.31.31,0,0,1-.13-.25v-1.06c0-.09.06-.14.13-.1l1.18.68a.31.31,0,0,1,.14.26v1.05C235.17,295.57,235.11,295.62,235,295.57Z" transform="translate(-43.74 -13.44)" fill="#2773e2"/><path id="_Path_284" data-name="&lt;Path&gt;" d="M224.53,295.85l-1-.56a.25.25,0,0,1-.11-.21v-.86c0-.08.05-.12.11-.09l1,.56a.27.27,0,0,1,.11.21v.87C224.64,295.85,224.59,295.89,224.53,295.85Z" transform="translate(-43.74 -13.44)" fill="#2773e2"/><path id="_Path_285" data-name="&lt;Path&gt;" d="M224.53,294.13l-1-.56a.27.27,0,0,1-.11-.21v-.87c0-.08.05-.12.11-.08l1,.56a.26.26,0,0,1,.11.21V294C224.64,294.12,224.59,294.16,224.53,294.13Z" transform="translate(-43.74 -13.44)" fill="#ff3222"/><path id="_Path_286" data-name="&lt;Path&gt;" d="M234.28,301.07l-1.12-.65a.31.31,0,0,1-.13-.24v-1c0-.09.05-.14.12-.1l1.13.65a.31.31,0,0,1,.13.24v1C234.41,301.06,234.35,301.11,234.28,301.07Z" transform="translate(-43.74 -13.44)" fill="#dd1c12"/><polygon id="_Path_287" data-name="&lt;Path&gt;" points="195.76 303.11 199.1 305.05 220.13 292.4 214.49 288.95 214.49 291.79 195.76 303.11" fill="#b9c1ae"/><g id="_Group_60" data-name="&lt;Group&gt;"><path id="_Path_288" data-name="&lt;Path&gt;" d="M244.54,321.36a2.77,2.77,0,0,1-1.38-.59l-.12-.08.58-.35h0c.87.58,1,.41,1,.4s.15-.79.15-1.3v-.22a2,2,0,0,0-1-1.52c-.28-.15-6.77-3.73-8.71-5a4.21,4.21,0,0,1-1.59-3.71v-8.44l.61.36V309c0,.05-.18,2.21,1.31,3.17,1.92,1.24,8.6,4.93,8.67,5a2.62,2.62,0,0,1,1.36,2.06v.22c0,.92,0,1.58-.47,1.84A.82.82,0,0,1,244.54,321.36Z" transform="translate(-43.74 -13.44)" fill="#ff3222"/></g><path id="_Path_289" data-name="&lt;Path&gt;" d="M231.62,299.37l-1.13-.65a.31.31,0,0,1-.13-.24v-1c0-.09.06-.14.13-.09l1.12.64a.31.31,0,0,1,.13.25v1C231.74,299.37,231.69,299.41,231.62,299.37Z" transform="translate(-43.74 -13.44)" fill="#3479df"/><g id="_Group_61" data-name="&lt;Group&gt;"><path id="_Path_290" data-name="&lt;Path&gt;" d="M232.23,320.84a1,1,0,0,1-.35-.07c-1.1-.42-1.13-2.79-1.13-3.06v-19h.61v19c0,.92.23,2.3.74,2.49.29.11.77-.18,1.35-.83l.19-.18.42.43-.17.17A2.48,2.48,0,0,1,232.23,320.84Z" transform="translate(-43.74 -13.44)" fill="#3479df"/></g><path id="_Path_291" data-name="&lt;Path&gt;" d="M255.42,272.94l-14.66-8.21s-11.88,6.69-16.32,9.24l-.12,1.16s-.23,1.65,2.25,3.13S238,284.84,238,284.84a5,5,0,0,0,2.52.67,3.44,3.44,0,0,1,1.06-1.24l13.65-8Z" transform="translate(-43.74 -13.44)" fill="#c6ccbc"/><path id="_Path_292" data-name="&lt;Path&gt;" d="M255.2,267.79A18,18,0,0,0,248,255.18c-6.44-4.6-13.3-6.57-17.52-5.45s-4.27,2.71-4.27,2.71l-2.25,20.4s-.23,1.64,2.25,3.12,11.44,6.59,11.44,6.59a4.46,4.46,0,0,0,4.39.14l12.77-7.48Z" transform="translate(-43.74 -13.44)" fill="#f6f9ed"/><path id="_Path_293" data-name="&lt;Path&gt;" d="M240.12,276.73l-12.69-7.35a2.31,2.31,0,0,1-.76-1.93l1.05-10.85c.08-.71.54-1,1-.63l12.68,7.35a2.32,2.32,0,0,1,.77,1.94l-1.06,10.85C241.08,276.81,240.61,277.09,240.12,276.73Z" transform="translate(-43.74 -13.44)" fill="#362f4c"/><g id="_Group_62" data-name="&lt;Group&gt;"><polygon id="_Path_294" data-name="&lt;Path&gt;" points="182.24 241.41 182.24 241.41 182.24 241.41 182.24 241.41" fill="#8bb7c1"/><path id="_Path_295" data-name="&lt;Path&gt;" d="M248,255.18c-6.44-4.6-13.3-6.57-17.52-5.45s-4.27,2.71-4.27,2.71l-.21,1.94a1.82,1.82,0,0,1,1.08-1.49c1.11-.4,2.95.51,2.95.51l12.57,7s2.44,1.76,2.24,4.33-1.73,16-1.72,17.32l11.69-6.84.41-7.42A18,18,0,0,0,248,255.18Z" transform="translate(-43.74 -13.44)" fill="#8bb7c1"/></g><path id="_Path_296" data-name="&lt;Path&gt;" d="M234.74,277.16l-5.91-3.43a1.11,1.11,0,0,1-.36-.9h0c0-.33.25-.46.48-.3l5.92,3.43a1.1,1.1,0,0,1,.36.9h0C235.19,277.19,235,277.32,234.74,277.16Z" transform="translate(-43.74 -13.44)" fill="#2773e2"/><path id="_Path_297" data-name="&lt;Path&gt;" d="M236.37,278.25,236,278a1.06,1.06,0,0,1-.36-.91h0c0-.32.25-.45.48-.29l.38.24a1.1,1.1,0,0,1,.36.9h0C236.82,278.29,236.6,278.42,236.37,278.25Z" transform="translate(-43.74 -13.44)" fill="#ff3222"/><path id="_Path_298" data-name="&lt;Path&gt;" d="M239.34,285.36l3.85-2s2,0,1.22,2.46-3.88,4.33-5.63,4.88-3.83-1.1-3.83-1.1l-2.58-1.43a2.83,2.83,0,0,1-.9-2.33c.08-2.26,1.7-3.5,3-3.19C234.9,282.73,239.34,285.36,239.34,285.36Z" transform="translate(-43.74 -13.44)" fill="#f4f7eb"/><path id="_Path_299" data-name="&lt;Path&gt;" d="M249.9,286.4v8.42a8.31,8.31,0,0,1-.4,3.23,5.53,5.53,0,0,1-1.31-1.36l-5.38-8.84a1.31,1.31,0,1,0-2.18,1.1l5.51,9.05c.43.65,1.85,2.56,3.49,2.56a2.08,2.08,0,0,0,.6-.09c1.86-.56,2.1-3.32,2.1-5.65V286.4Z" transform="translate(-43.74 -13.44)" fill="#dce2d3"/><polygon id="_Path_300" data-name="&lt;Path&gt;" points="220.89 264.55 218.85 287.78 215.4 289.05 217.49 265.62 220.89 264.55" fill="#7ba1aa"/><polygon id="_Path_301" data-name="&lt;Path&gt;" points="201.31 268.79 203.62 246.12 217.49 265.62 215.4 289.05 201.31 268.79" fill="#f0f4e4"/><polygon id="_Path_302" data-name="&lt;Path&gt;" points="202.84 267.15 204.54 250.33 215.87 266.21 214.35 283.65 202.84 267.15" fill="#362f4c"/><polygon id="_Path_303" data-name="&lt;Path&gt;" points="203.62 246.12 206.87 245.15 220.89 264.55 217.49 265.62 203.62 246.12" fill="#a7d1d8"/><g id="_Group_63" data-name="&lt;Group&gt;"><polygon id="_Path_304" data-name="&lt;Path&gt;" points="209.86 276.17 211.03 265.09 208.82 271.51 208.36 271.38 209.89 264.14 208.59 266.06 206.58 262.96 205.33 266.64 204.86 266.53 205.72 261.5 205.69 261.57 203.5 258.84 203.88 258.53 205.51 260.56 206.28 258.18 206.75 258.29 205.85 263.59 206.44 261.85 208.6 265.18 210.88 261.81 209.66 267.57 211.97 260.86 210.78 272.07 212.5 267.18 212.5 270.43 215.34 274.47 214.94 274.75 212.01 270.58 212.01 270.04 209.86 276.17" fill="#b9c1ae"/></g><path id="_Path_305" data-name="&lt;Path&gt;" d="M264.48,288.05l-1.6-1.19h0a.61.61,0,1,0-.71,1h0l1.64,1.21.09.06s.56.32.51,1.56c-.06,1.7-.47,5.52-.47,5.56a2.46,2.46,0,0,1-.27.92s-.1,0-.3-.2l-1.31-1.2a.6.6,0,0,0-.46-.22.62.62,0,0,0-.62.61.58.58,0,0,0,.23.46h0l1.35,1.24a1.64,1.64,0,0,0,1.12.52,1.13,1.13,0,0,0,.39-.07c.86-.33,1.05-1.57,1.09-1.94,0-.16.41-3.91.48-5.64A2.73,2.73,0,0,0,264.48,288.05Z" transform="translate(-43.74 -13.44)" fill="#4e6572"/><path id="_Path_306" data-name="&lt;Path&gt;" d="M323.26,217.13a5.06,5.06,0,0,1-1.5,3.59l-1.9,1,.64,4.68,9.23-1.27s-2.52-.61-2.61-1.81,2.61-6.9,2.61-6.9Z" transform="translate(-43.74 -13.44)" fill="#efc286"/><path id="_Path_307" data-name="&lt;Path&gt;" d="M324.79,208.94a9.17,9.17,0,0,0-2.54,3.42c-.55,1.77-.88,4.91.37,5.77s5.47.75,7.66-2.36-.39-6.83-.39-6.83l-4.36-.22Z" transform="translate(-43.74 -13.44)" fill="#f9d2a2"/><path id="_Path_308" data-name="&lt;Path&gt;" d="M326.46,207.81s-1.17,3.39,1.32,5.67,4.21,2.29,4.21,2.29l2.13.44s1.48-5.55-.39-7.67-6.4-2.18-6.4-2.18Z" transform="translate(-43.74 -13.44)" fill="#353d3d"/><path id="_Path_309" data-name="&lt;Path&gt;" d="M330.43,213.66s-1.38,3.77-2.56,4.47-2.33,1.64-2.08,3.3a4.23,4.23,0,0,0,3.66,3.76c2.34.31,2.84.72,3.25,2.93s.82,1,1-.79-.37-5.43-2.36-5.3a8.08,8.08,0,0,1-2.37,0s3.2-1.09,4.29-3,2.11-4.79,1.39-6.92S330.43,213.66,330.43,213.66Z" transform="translate(-43.74 -13.44)" fill="#353d3d"/><path id="_Path_310" data-name="&lt;Path&gt;" d="M322.62,211.52s-.25-3.19.5-4a5.14,5.14,0,0,1,3.34-1.89,1.25,1.25,0,0,1,1.32,1.66c-.16.56-1.42,1.36-3,2.27A6.59,6.59,0,0,0,322.62,211.52Z" transform="translate(-43.74 -13.44)" fill="#353d3d"/><path id="_Path_311" data-name="&lt;Path&gt;" d="M321.29,221s-2.52-2.27-4.85-.93c-1.71,1-6.95,6.66-8.24,7.73-2.22,1.83-2.34,3.34-2.34,3.34l16.72,9.25,5.26-2L329,227l-8.5-.6Z" transform="translate(-43.74 -13.44)" fill="#399fb7"/><path id="_Path_312" data-name="&lt;Path&gt;" d="M313.93,241.88a2.77,2.77,0,0,1-1.06-.09,2.57,2.57,0,0,0-2.32-.32c-1.24.44-1.86,1-1.8,1.15s.16.65.88.25a2.59,2.59,0,0,1,1.87-.27c.2.12-.44.27-1,.34s-2.38.28-2.63.37a.76.76,0,0,0-.58.5,2.23,2.23,0,0,0-.24.73c-.08.53-.17.35.05.91a2.63,2.63,0,0,0,2.52,1.15,8,8,0,0,0,3.79-.69,10.67,10.67,0,0,1,2-1.28c.56-.17.82-1,.8-1.21A20.67,20.67,0,0,0,313.93,241.88Z" transform="translate(-43.74 -13.44)" fill="#efc286"/><path id="_Path_313" data-name="&lt;Path&gt;" d="M314.7,241.17l-2,.48a2.48,2.48,0,0,1,1.17,2.08c-.09,1.33,2,1.5,2,1.5l2.46-3Z" transform="translate(-43.74 -13.44)" fill="#eaefe1"/><path id="_Path_314" data-name="&lt;Path&gt;" d="M320.5,226.42l8.5-1.23a3.42,3.42,0,0,1,3,1c1.17,1.37,1.67,4.12.51,9.37a49.1,49.1,0,0,1-2.2,7.67,5.16,5.16,0,0,1-1.89.5c-1.21.12-12.58,1.48-12.58,1.48s.75-1.89,0-2.94-1.17-1.12-1.17-1.12l11.05-2.77a30.23,30.23,0,0,1,.71-6.59l.74-2.81Z" transform="translate(-43.74 -13.44)" fill="#6ec9e5"/><path id="_Path_315" data-name="&lt;Path&gt;" d="M321.29,221a6.19,6.19,0,0,0-1.21-.8c-.54-.24-1.29,8-1.29,8l9.37-1.75,1.94-1.23a5.89,5.89,0,0,0-1.92,0l-7.68,1.19Z" transform="translate(-43.74 -13.44)" fill="#eaefe1"/></g></g></svg>